<?xml version="1.0" standalone="no"?>
<!DOCTYPE svg PUBLIC "-//W3C//DTD SVG 20010904//EN"
 "http://www.w3.org/TR/2001/REC-SVG-20010904/DTD/svg10.dtd">
<svg version="1.0" xmlns="http://www.w3.org/2000/svg"
 width="313.000000pt" height="409.000000pt" viewBox="0 0 313.000000 409.000000"
 preserveAspectRatio="xMidYMid meet">
<metadata>
Created by potrace 1.13, written by Peter Selinger 2001-2015
</metadata>
<g transform="translate(0.000000,409.000000) scale(0.200000,-0.200000)"
fill="#000000" stroke="none">
<path d="M799 2032 c-5 -6 -9 -13 -9 -15 0 -3 -11 -4 -25 -3 l-25 2 0 -63 c0
-58 -1 -63 -9 -61 -8 2 -91 21 -149 34 -42 9 -49 6 -55 -25 -2 -15 -6 -26 -8
-26 -53 3 -109 -1 -109 -8 0 -4 -3 -9 -7 -10 -6 -2 -8 -10 -8 -28 0 -17 -2
-25 -7 -27 -12 -5 -9 -11 3 -9 28 7 -6 -8 -37 -16 -19 -4 -33 -9 -32 -11 2 -2
57 10 77 17 3 1 6 0 6 -2 0 -3 -12 -7 -27 -11 -15 -3 -29 -8 -31 -11 -5 -9 2
-10 14 -2 26 16 42 15 42 -3 0 -9 2 -100 4 -202 6 -248 2 -256 -38 -96 -16 61
-34 134 -41 162 -7 27 -14 55 -16 61 -3 9 -2 11 5 8 4 -2 8 -1 8 2 0 4 -4 6
-10 6 -11 0 -12 -4 -5 -29 33 -124 80 -324 77 -332 -6 -18 -11 -3 -39 109 -16
60 -40 150 -53 200 -34 125 -35 116 8 130 24 8 29 11 15 8 -39 -5 -66 -14 -64
-20 1 -4 -3 -8 -8 -9 -14 -4 -17 -29 -9 -58 5 -15 5 -25 2 -28 -3 -3 -1 -16 6
-36 13 -37 12 -38 -31 -55 -16 -6 -30 -13 -32 -16 -1 -2 12 1 29 8 47 18 53
20 37 10 -15 -9 -9 -19 10 -16 8 1 43 -108 107 -333 21 -76 34 -108 42 -108 3
0 13 2 21 4 l16 5 -12 -37 c-13 -43 -15 -47 -25 -47 -8 0 -9 -6 -3 -13 3 -2 1
-8 -5 -13 -7 -7 -9 -8 -9 -2 0 4 2 9 5 11 6 3 2 12 -5 12 -3 0 -5 -3 -5 -7 0
-4 -3 -8 -6 -10 -5 -2 -5 -4 1 -8 6 -4 6 -5 -1 -5 -9 0 -37 48 -32 54 2 2 5
-2 6 -8 2 -8 6 -11 14 -10 6 1 9 4 8 7 -1 2 -5 4 -9 3 -5 -1 -27 38 -47 89 -3
7 -6 10 -8 6 -1 -3 -4 -5 -7 -3 -4 3 6 -25 16 -42 8 -14 6 -2 -3 15 -4 8 -7
17 -6 20 1 4 9 -11 18 -32 9 -21 15 -41 13 -45 -1 -4 4 -20 12 -35 8 -16 13
-29 11 -29 -4 0 -38 72 -122 258 -12 27 -30 66 -39 87 -10 21 -26 57 -35 80
-10 23 -24 55 -31 71 -17 38 -17 39 26 51 6 2 11 5 11 8 0 5 -67 -18 -68 -23
0 -3 -1 -7 -4 -11 -2 -3 -2 -8 -1 -11 2 -2 1 -6 -2 -7 -3 -2 2 -18 13 -39 l18
-36 -22 -19 c-12 -10 -23 -19 -25 -19 -8 0 -44 -27 -44 -32 0 -4 5 -11 10 -15
6 -5 10 -13 10 -18 0 -5 3 -11 7 -15 9 -7 3 -21 -18 -39 -18 -15 -49 -58 -49
-67 0 -3 9 -12 20 -19 l20 -13 -14 -27 c-19 -37 -29 -70 -23 -74 2 -2 5 -7 5
-10 0 -4 11 -11 25 -17 13 -5 31 -12 40 -16 27 -13 104 -44 122 -49 10 -3 20
-7 22 -9 3 -3 9 -5 14 -5 8 0 13 -17 13 -49 0 -12 15 -132 19 -148 1 -6 3 -18
4 -28 2 -10 10 -47 18 -82 9 -36 16 -72 17 -79 1 -7 4 -17 7 -21 8 -9 13 -66
8 -89 l-4 -19 -15 8 c-42 22 -101 -13 -138 -82 -6 -10 -22 -34 -38 -53 -15
-20 -27 -39 -27 -44 0 -11 14 -17 21 -10 4 4 9 -1 17 -18 11 -24 90 -102 130
-129 11 -7 21 -15 22 -17 1 -2 8 -6 15 -10 12 -6 12 -6 5 2 -10 13 -11 24 -1
21 5 -2 2 3 -6 9 -18 17 -15 16 20 -5 16 -9 32 -16 37 -15 9 3 21 -3 20 -10 0
-2 2 -5 5 -6 4 -1 5 0 3 3 -3 5 0 4 9 0 7 -3 12 -7 10 -8 -1 -2 18 -13 42 -25
24 -12 46 -25 49 -29 6 -8 14 -10 10 -2 -2 3 0 5 5 5 5 0 7 -3 5 -7 -1 -5 0
-8 2 -8 3 0 7 -5 10 -11 2 -6 5 -8 5 -5 0 5 5 6 19 4 10 -2 23 -5 30 -6 10 -2
25 14 22 25 -1 2 1 2 4 1 3 -2 5 -1 5 3 0 5 1 5 5 -1 3 -5 5 -2 8 12 2 11 8
24 13 29 5 5 9 12 9 15 0 4 4 16 10 26 16 32 2 85 -34 127 l-14 17 27 51 c20
40 29 53 40 58 26 10 39 30 48 70 5 21 12 48 16 60 17 51 18 254 3 284 -5 9
-5 13 3 21 11 12 21 46 21 70 0 15 1 16 16 14 22 -2 33 -24 24 -46 -20 -49
-22 -64 -22 -190 -1 -162 3 -176 50 -212 27 -20 35 -30 52 -62 l20 -39 -9 -15
c-9 -15 -9 -40 -1 -40 2 0 3 -8 2 -18 -1 -10 0 -16 3 -14 3 1 5 0 5 -3 0 -3
-3 -5 -7 -3 -7 2 -18 -6 -18 -14 0 -2 4 -1 8 3 8 6 8 6 2 -5 -4 -6 -9 -8 -10
-6 -13 21 -22 -49 -12 -91 4 -16 8 -35 9 -43 2 -7 6 -24 10 -36 l8 -22 -2 18
c-1 25 0 24 12 -4 6 -13 12 -22 13 -20 2 2 8 -1 13 -6 10 -8 10 -8 3 6 -5 12
-5 15 0 17 3 1 6 5 6 9 0 4 2 6 4 5 5 -3 13 11 12 19 -1 2 1 2 4 0 4 -2 4 -5
0 -10 -9 -10 -2 -15 12 -8 7 3 14 11 16 18 2 7 6 13 10 13 3 0 7 3 9 8 2 5 1
6 -3 4 -5 -3 -5 -2 -1 3 26 35 40 49 57 60 11 7 20 14 20 17 0 5 -22 -9 -39
-24 -15 -13 -17 -9 -7 12 9 20 9 22 10 32 1 6 31 31 31 26 0 -2 -7 -11 -16
-20 -8 -10 -13 -18 -10 -18 3 0 7 2 9 6 2 3 5 3 8 -2 3 -5 4 -5 4 1 0 5 3 11
6 14 3 3 7 11 7 17 3 19 12 33 33 50 l21 16 -12 -17 c-7 -10 -16 -21 -20 -25
-4 -4 -5 -6 -2 -4 3 2 7 3 8 1 2 -2 7 4 11 12 4 8 11 16 16 18 4 2 6 5 5 7 -3
5 29 36 36 36 2 0 -4 -7 -14 -16 -10 -8 -14 -14 -9 -12 14 4 5 -11 -12 -20
-15 -8 -19 -14 -6 -9 9 4 9 1 -1 -21 -8 -21 -7 -24 5 -19 9 3 11 12 3 12 -10
0 16 44 28 46 12 3 8 -19 -6 -31 -8 -7 -9 -15 -2 -15 2 0 14 19 25 41 21 42
33 59 41 59 8 0 4 -10 -10 -23 -9 -9 -11 -11 -4 -9 9 3 9 3 1 -10 -5 -7 -7
-13 -4 -13 3 0 7 6 11 14 3 8 12 18 21 23 15 9 15 9 9 -1 -6 -13 -6 -16 0 -16
3 0 6 6 8 13 2 7 7 14 12 17 13 7 15 6 12 -4 -2 -5 -1 -6 1 -3 3 3 10 5 17 5
9 0 12 2 12 9 0 5 3 10 7 11 3 1 4 0 1 -1 -3 -2 -5 -5 -5 -7 0 -7 23 -6 35 0
6 3 18 4 28 2 24 -4 12 -11 -15 -8 -14 1 -19 0 -15 -3 7 -7 67 -13 67 -6 0 3
-2 5 -5 5 -3 0 -5 3 -5 6 0 4 5 1 10 -5 5 -6 13 -11 17 -11 44 0 -120 125
-173 133 -102 14 -96 111 18 289 24 38 53 97 72 148 9 23 20 49 25 58 50 91
56 118 34 166 -18 37 -43 72 -49 68 -3 -2 -4 -1 -2 1 1 3 44 22 95 42 53 21
93 40 93 44 0 3 -6 20 -12 36 -16 38 -16 39 5 49 19 9 20 11 9 29 -8 12 -8 13
0 18 11 6 10 11 -7 37 -18 26 -19 24 3 37 17 10 18 11 10 19 -7 9 -8 10 0 16
7 6 6 8 -4 18 -10 12 -10 12 -2 19 9 6 7 9 -25 39 l-34 33 12 14 c18 20 14 33
-19 61 -15 13 -33 28 -39 33 l-10 10 22 40 c12 22 24 43 26 45 8 8 6 12 -6 15
-10 2 -10 3 -2 15 9 14 5 20 -19 26 -8 2 -21 7 -28 10 -17 9 -25 9 -22 0 2 -4
-1 -11 -5 -16 -4 -4 -8 -6 -8 -4 0 3 -2 1 -5 -3 -4 -6 -5 -5 -5 4 0 7 2 10 7
8 4 -1 8 0 10 3 2 3 1 5 -2 6 -6 0 -14 2 -17 4 -2 1 -6 2 -9 2 -3 0 -7 4 -8 7
-2 7 4 6 29 -3 4 -2 5 -1 3 3 -2 3 -7 6 -11 6 -4 0 -17 4 -28 10 -12 5 -44 18
-72 28 l-50 20 -1 21 c-2 30 -15 41 -45 41 -13 0 -47 2 -76 4 -29 3 -80 6
-113 8 -34 1 -63 3 -66 5 -17 11 -129 7 -137 -5z m36 -6 c0 -10 -10 -27 -10
-17 0 3 -3 4 -8 3 -6 -3 -7 -4 -1 -8 5 -3 5 -4 -2 -4 -6 0 -8 -6 -9 -26 -1
-39 -4 -70 -7 -79 -7 -20 -8 -21 -6 -5 1 10 4 39 6 65 3 40 5 48 15 58 12 10
17 20 7 15 -2 -2 -6 -1 -7 2 -2 3 2 5 9 5 9 0 13 -3 13 -9z m130 -17 c0 -3 -1
-4 -3 -3 -4 5 -17 -9 -17 -17 0 -13 -14 -45 -17 -40 -2 3 0 12 3 19 6 17 7 20
8 37 1 10 2 11 6 5 4 -6 5 -6 5 1 0 6 3 8 8 6 4 -2 7 -5 7 -8z m194 8 c7 -2
11 -7 11 -14 -1 -10 -1 -10 -5 0 -2 5 -4 7 -5 5 0 -3 -2 -2 -5 2 -3 4 -5 5 -5
2 0 -7 -15 -7 -15 0 0 3 -2 2 -5 -2 -4 -7 -6 -7 -10 0 -3 5 -5 5 -5 1 0 -8
-11 -8 -23 1 -10 8 41 12 67 5z m47 -25 c1 -12 0 -26 -2 -31 -2 -5 -3 5 -4 21
0 18 -2 27 -5 26 -3 -2 -5 -1 -5 2 0 18 14 2 16 -18z m-318 7 c2 -3 1 -4 -3
-2 -4 3 -6 1 -5 -8 2 -24 0 -38 -5 -26 -5 12 -13 -21 -9 -39 2 -6 1 -17 -1
-24 -3 -8 -4 5 -5 36 0 27 0 51 0 53 -1 8 9 6 12 -2 1 -6 2 -5 2 4 1 14 8 18
14 8z m24 -64 l-4 -17 -3 25 c-1 13 0 33 3 44 l5 20 1 -27 c1 -15 0 -35 -2
-45z m178 55 c0 -5 -3 -10 -6 -10 -4 -1 -2 -3 4 -5 7 -3 12 -1 18 6 5 6 9 8 9
6 0 -8 -17 -22 -26 -22 -5 0 -8 -2 -7 -4 1 -2 1 -11 -2 -19 l-4 -14 -1 17 c-1
10 -2 13 -3 9 -5 -16 -16 -35 -19 -31 -3 6 27 77 33 77 2 0 4 -4 4 -10z m-81
-43 c1 -24 0 -43 -1 -41 -5 4 -9 90 -4 87 2 -1 5 -22 5 -46z m-191 0 c-2 -18
-5 -32 -6 -30 -2 1 -1 19 1 39 2 20 4 34 6 30 1 -4 1 -21 -1 -39z m37 -28 c0
-51 -1 -54 -10 -54 -9 0 -10 4 -11 46 l-1 47 -3 -45 c-3 -44 -3 -44 -5 -15 -3
43 -2 59 5 61 4 1 4 4 -1 9 -4 6 -4 9 1 13 5 5 6 5 3 0 -3 -4 -2 -9 1 -10 3
-2 6 -24 6 -52 1 -27 3 -49 5 -49 4 0 3 91 0 108 -2 11 1 14 5 5 2 -6 4 -35 5
-64z m129 -13 c1 -32 -1 -64 -3 -71 -4 -9 -5 4 -6 53 0 35 -2 70 -3 77 -3 11
-2 11 4 6 5 -5 7 -23 8 -65z m-210 -5 c-1 -13 -2 -2 -2 24 0 26 1 37 2 24 1
-13 1 -35 0 -48z m220 -15 c-1 -16 -2 -3 -2 29 0 32 1 45 2 29 1 -16 1 -42 0
-58z m155 40 c0 -23 0 -23 -4 -6 l-4 18 0 -22 c-1 -11 -3 -21 -6 -21 -3 0 -5
14 -4 37 1 37 1 38 10 28 6 -7 9 -17 8 -34z m-179 -121 c-1 -4 -3 25 -4 64 -1
39 -3 71 -5 71 -2 0 -3 -36 -2 -81 1 -53 0 -82 -4 -86 -3 -3 -5 20 -5 82 0 76
1 87 9 93 8 6 18 -121 11 -143z m200 134 c0 -5 -2 -8 -5 -7 -2 2 -5 -1 -7 -6
-1 -5 -2 0 -2 10 -1 15 1 18 7 16 4 -2 7 -7 7 -13z m-270 -21 c0 -25 -2 -32
-7 -30 -4 2 -5 -2 -4 -15 1 -12 0 -18 -4 -18 -8 0 -4 45 5 50 3 2 5 8 4 13 -1
14 1 32 4 32 1 0 2 -15 2 -32z m220 10 c3 1 5 -9 4 -24 -1 -25 -1 -26 -3 -6
l-3 20 -3 -28 c-3 -25 -3 -23 -4 15 0 23 1 37 3 31 1 -6 4 -10 6 -8z m-27 -36
c-1 -26 -3 -49 -5 -51 -2 -2 -3 20 -2 48 1 28 3 51 5 51 3 0 4 -21 2 -48z
m219 30 c45 -17 60 -27 38 -26 -5 1 -10 3 -10 5 0 3 -2 3 -5 2 -3 -2 -5 -1 -5
2 0 3 -2 4 -5 3 -5 -4 -30 7 -30 13 0 3 -2 3 -5 2 -3 -2 -11 0 -19 4 -8 4 -17
6 -19 4 -2 -2 -2 -1 0 3 5 8 6 8 60 -12z m-106 6 c11 -8 6 -14 -7 -8 -7 4 -9
4 -9 -4 0 -7 -1 -7 -5 -2 -8 14 7 24 21 14z m-102 -54 c-1 -12 -2 -3 -2 19 0
22 1 31 2 21 1 -10 1 -28 0 -40z m-563 11 c-5 -12 -5 -12 -6 3 0 22 7 40 9 22
1 -7 -1 -18 -3 -25z m156 7 c156 -37 192 -46 184 -46 -3 -1 -17 1 -31 4 -14 4
-27 5 -28 3 -2 -1 10 -5 26 -9 16 -3 26 -7 23 -8 -3 -1 -28 4 -56 11 -28 8
-52 12 -54 11 -2 -1 -9 1 -16 5 -12 7 -12 7 6 5 32 -5 21 0 -17 9 -20 5 -55
13 -78 18 -45 11 -55 12 -48 6 2 -3 25 -8 50 -13 67 -13 65 -12 53 -25 -11
-12 -58 -87 -150 -238 -34 -56 -61 -99 -59 -94 1 5 4 17 5 27 2 11 -3 1 -9
-22 -11 -38 -24 -66 -16 -36 5 20 25 112 53 246 26 119 27 123 40 127 17 4 25
11 25 24 -1 10 -1 10 -5 -1 -5 -11 -24 -22 -31 -18 -2 1 -4 -2 -6 -7 -7 -23
-35 -150 -58 -263 -14 -69 -29 -132 -33 -140 -6 -13 -7 -14 -4 -3 23 102 35
158 45 210 6 34 17 87 24 118 7 30 15 71 18 91 7 44 -6 44 147 8z m248 -59 c1
-107 -1 -115 -5 -15 -2 71 -1 100 3 96 1 -1 2 -37 2 -81z m134 16 c-1 -12 -2
-1 -2 24 0 24 1 34 2 21 1 -14 1 -34 0 -45z m-155 34 c-3 -13 -8 -23 -10 -23
-2 0 1 11 5 25 10 31 14 30 5 -2z m348 24 c9 -3 11 -27 3 -27 -3 0 -5 5 -5 11
0 9 -1 10 -5 4 -4 -6 -5 -5 -5 4 0 12 1 12 12 8z m40 -11 c-2 -6 0 -9 4 -9 17
0 54 -19 52 -26 -2 -4 -3 -21 -4 -38 l-1 -30 -3 25 c-3 24 -3 24 -4 5 -1 -28
-18 -13 -18 16 0 17 0 17 -2 2 -3 -23 -11 -15 -12 13 l0 24 -4 -20 -4 -20 -1
20 c-1 19 -1 19 -5 5 -3 -13 -4 -10 -4 13 -1 16 1 29 4 29 2 0 3 -4 2 -9z
m-17 -5 c3 4 5 0 4 -13 0 -11 -1 -17 -2 -12 -2 5 -5 7 -9 6 -5 -2 -6 2 -4 14
2 11 4 13 5 7 2 -8 3 -8 6 -2z m-227 -37 l1 -41 -5 28 c-4 24 -3 54 3 54 0 0
1 -19 1 -41z m120 9 c3 2 6 -9 6 -29 1 -17 3 -33 4 -34 1 -2 -12 -16 -28 -30
l-30 -26 1 49 1 50 3 -45 3 -45 2 51 c1 28 1 51 -1 51 -2 0 -4 -2 -4 -5 0 -2
-4 -4 -10 -4 -5 1 -10 4 -10 8 0 6 2 6 7 2 5 -5 8 -4 13 2 10 12 15 0 16 -43
l1 -37 2 34 c1 20 4 37 7 38 3 2 4 9 1 15 -2 9 -4 10 -7 4 -4 -5 -5 -5 -5 1 0
17 12 21 17 6 3 -8 8 -14 11 -13z m43 -3 c1 -17 0 -32 -2 -33 -2 -2 -4 5 -4
14 0 9 -2 20 -4 23 -3 4 -4 11 -2 17 5 18 10 8 12 -21z m-296 -142 c-1 -6 -4
26 -5 70 -1 44 -1 84 0 90 1 5 4 -26 5 -70 1 -44 1 -85 0 -90z m-28 136 c2
-15 2 -24 -2 -24 -2 0 -3 3 -2 8 2 4 1 10 -2 14 -3 3 -4 11 -3 17 4 15 5 13 9
-15z m521 21 c-2 -3 2 -5 8 -5 19 0 34 -6 31 -11 -2 -3 -5 -13 -8 -21 -4 -15
-4 -15 -2 3 0 11 -1 19 -3 20 -18 2 -21 1 -22 -12 -1 -8 1 -13 3 -11 3 1 5 0
5 -3 0 -12 -13 -1 -14 12 -1 7 -3 13 -5 13 -2 0 -4 5 -5 10 0 6 3 10 7 10 4 0
6 -2 5 -5z m-899 -12 c2 -2 -12 -3 -29 -4 l-32 -1 30 -3 c22 -2 25 -4 11 -4
-14 -1 -19 -3 -19 -10 0 -6 1 -7 4 -2 3 4 10 6 17 5 14 -2 14 -13 -2 -79 -5
-23 -20 -91 -32 -150 -12 -59 -22 -110 -23 -112 -1 -3 -2 58 -4 135 -2 118 -1
140 5 146 5 4 5 8 1 12 -12 12 -17 -15 -14 -95 4 -110 5 -241 2 -244 -2 -1 -4
77 -6 173 l-4 176 15 16 c15 14 23 43 11 36 -3 -2 -5 -7 -5 -11 0 -5 -6 -15
-13 -24 l-14 -15 4 -200 c2 -110 2 -199 1 -198 -2 3 -7 137 -11 329 l-3 132
54 -3 c29 -2 55 -4 56 -5z m506 -29 c-14 -31 -14 -31 -18 -28 -1 1 4 15 11 31
7 16 14 28 16 26 1 -2 -3 -15 -9 -29z m22 -1 c1 -20 1 -27 -2 -20 -4 9 -7 56
-3 52 1 -2 3 -16 5 -32z m159 4 c2 -17 1 -23 -7 -30 -9 -8 -9 -8 -8 21 0 27 1
28 4 12 l4 -17 -1 21 c-1 26 5 21 8 -7z m-397 -27 c25 -15 45 -28 44 -29 -1
-1 -24 11 -51 27 l-49 28 -8 -10 c-6 -7 -15 -11 -26 -12 l-16 -1 16 -2 c11 -1
20 1 26 7 15 13 28 5 15 -9 -5 -6 -10 -13 -10 -15 0 -2 -6 -6 -13 -9 -7 -3
-11 -7 -10 -10 2 -3 -15 -28 -37 -56 -111 -140 -140 -179 -137 -184 1 -3 0 -5
-4 -4 -4 1 -6 -1 -6 -3 1 -3 -4 -10 -11 -14 l-12 -9 11 17 c16 28 7 21 -11 -8
-10 -17 -13 -24 -7 -19 5 3 4 1 -3 -6 -7 -6 -19 -21 -26 -33 -9 -13 -17 -20
-20 -18 -4 2 -5 1 -3 -5 2 -4 1 -7 -2 -7 -3 1 -9 -6 -14 -16 -9 -15 -25 -35
-19 -22 14 28 46 76 49 75 2 -2 4 1 3 6 0 5 2 8 6 7 4 -1 5 1 4 4 -2 3 6 20
17 39 12 18 43 69 70 113 61 101 124 198 129 198 2 0 6 -2 9 -5 4 -4 9 -4 16
0 12 6 15 18 4 13 -5 -2 -8 0 -8 5 0 7 -1 7 -8 0 -12 -12 -14 -10 -3 4 l9 12
20 -11 c11 -6 40 -23 66 -38z m-1 30 c54 -14 68 -26 50 -44 -2 -2 -80 38 -100
52 -13 9 -15 9 50 -8z m560 -13 c-1 -17 0 -33 3 -39 5 -9 5 -10 -2 -4 -10 8
-12 71 -3 71 4 0 4 -10 2 -28z m50 -24 c-1 -8 -4 -16 -6 -18 -3 -1 -5 -5 -5
-9 -1 -12 -2 -14 -9 -14 -7 0 -7 0 7 28 3 6 4 23 3 39 l-3 29 7 -20 c5 -11 7
-27 6 -35z m-504 -29 c0 -47 -2 -70 -4 -59 l-4 18 -1 -15 c-1 -9 -3 6 -5 32
-2 26 -2 53 -1 60 2 8 5 -5 7 -32 l3 -45 0 50 c0 62 0 67 4 67 1 0 2 -34 1
-76z m384 58 c7 -7 12 -14 10 -16 -5 -5 8 -15 16 -13 7 2 7 2 2 -2 -5 -3 -5
-6 -2 -8 3 -2 4 -7 3 -11 -3 -8 -17 2 -17 13 0 3 -2 4 -5 2 -4 -2 -5 1 -4 10
1 8 -3 17 -11 25 -15 17 -8 17 8 0z m-259 -32 c0 -11 0 -12 -4 -2 -2 5 -4 17
-4 27 l0 18 4 -15 c2 -9 4 -21 4 -28z m409 7 c6 -9 6 -12 1 -18 -4 -4 -9 -10
-10 -14 -3 -6 -3 -6 -4 1 0 5 2 10 5 12 3 1 5 8 5 14 -1 7 -6 1 -15 -19 -8
-17 -15 -27 -15 -24 0 13 22 75 24 67 1 -5 5 -13 9 -19z m-323 -28 c-1 -35 -2
-43 -5 -32 -3 8 -3 17 -2 20 2 2 1 3 -2 1 -4 -2 -5 -11 -3 -23 2 -11 1 -20 -2
-22 -4 -3 -6 10 -6 42 0 41 5 55 12 39 1 -4 3 -2 2 4 0 13 0 17 4 17 1 0 2
-21 2 -46z m257 39 c-2 -5 -1 -8 2 -8 4 0 6 -4 6 -8 0 -4 2 -6 5 -5 3 2 4 0 2
-4 -2 -4 -5 -7 -7 -5 -2 1 -3 -2 -1 -8 1 -5 0 -10 -3 -10 -5 0 -11 23 -11 43
0 7 2 12 5 12 3 0 3 -3 2 -7z m-532 -51 c0 -14 -10 -10 -38 16 l-29 27 33 -19
c19 -10 34 -21 34 -24z m249 -14 c0 -52 -3 -45 -5 15 -1 23 0 38 2 35 2 -3 4
-26 3 -50z m116 41 c-1 -16 -1 -16 -5 -4 -4 12 -4 11 -5 -5 -1 -16 -1 -16 -5
-5 -2 8 -1 15 4 21 10 12 11 12 11 -7z m-218 -5 c2 7 5 11 6 9 3 -3 -9 -38
-13 -38 -1 0 -3 11 -3 24 -1 19 0 21 3 9 3 -15 3 -15 7 -4z m303 -34 c0 -4
-35 -25 -35 -21 0 8 15 24 15 17 0 -6 2 -6 7 -1 8 6 0 22 -8 17 -2 -2 -4 1 -4
6 0 4 -2 6 -5 5 -3 -2 -5 0 -5 5 0 4 -2 6 -5 5 -3 -2 -5 0 -5 5 0 7 6 3 23
-13 12 -12 22 -23 22 -25z m53 21 c-4 -1 -8 -7 -9 -13 0 -10 -1 -9 -3 2 -1 9
-3 10 -6 5 -4 -6 -5 -5 -5 4 0 6 2 11 5 11 3 0 5 2 5 5 0 3 -3 4 -6 2 -3 -2
-4 -1 -2 3 3 4 7 3 16 -6 10 -9 11 -12 5 -13z m-471 -63 c95 -80 92 -78 94
-62 2 10 2 9 2 -2 0 -7 4 -18 9 -24 24 -26 -2 -8 -84 60 -79 66 -91 74 -100
69 -5 -3 -16 -7 -23 -9 l-12 -4 13 -1 c7 0 19 2 25 5 10 3 17 0 48 -26 43 -36
45 -45 3 -12 -29 22 -45 29 -41 17 2 -4 5 -6 8 -5 9 2 157 -116 156 -124 -1
-1 -12 -12 -27 -24 -31 -27 -108 -100 -108 -104 0 -4 -41 -39 -56 -48 -8 -5
-14 -12 -14 -16 0 -3 -4 -11 -10 -15 -13 -12 -13 -21 2 -40 6 -9 23 -34 37
-57 l26 -42 -49 -61 c-29 -35 -53 -60 -58 -60 -4 1 -8 -2 -8 -6 0 -9 10 -9 21
1 16 15 9 0 -9 -20 -18 -19 -18 -19 -37 -13 -11 4 -24 5 -30 3 -13 -3 -28 3
-32 15 -2 6 0 7 10 6 8 -1 14 1 16 5 1 4 -2 6 -10 5 -14 -2 -14 0 10 89 15 52
12 125 -5 140 -36 30 -61 25 -104 -20 -25 -26 -30 -34 -49 -69 -3 -8 -8 -14
-10 -14 -7 0 -16 12 -16 21 0 10 -8 12 -13 3 -2 -3 2 -10 10 -17 14 -13 16
-17 7 -17 -3 0 -15 8 -25 18 -10 11 -20 18 -22 16 -1 -1 7 -11 18 -21 37 -33
17 -25 -25 10 -47 39 -45 33 -19 65 11 13 60 73 108 132 49 59 116 141 151
183 35 41 76 92 92 113 25 34 30 38 38 33 4 -4 46 -38 92 -76z m148 73 c-1 -5
-2 -6 -3 -2 -5 11 -11 6 -8 -8 1 -10 1 -12 -4 -6 -8 12 -6 25 5 25 6 0 10 -3
10 -9z m275 -11 c0 -3 2 -4 5 -2 3 1 5 0 5 -2 0 -11 -9 -10 -20 1 -12 13 -10
28 3 16 4 -4 7 -10 7 -13z m-411 -26 l0 -36 -4 32 c-4 30 -3 40 3 40 1 0 2
-16 1 -36z m195 -8 l-1 -43 -3 40 c-2 22 -2 41 -1 43 5 10 6 0 5 -40z m105 33
c1 -11 -7 -24 -15 -24 -2 0 -4 5 -4 11 0 9 1 10 5 4 4 -6 5 -4 5 6 0 17 8 19
9 3z m22 -16 c-9 -9 -15 -17 -14 -18 5 -6 8 -50 4 -50 -3 0 -6 8 -7 19 -2 18
-2 18 -2 -3 0 -33 -15 -44 -17 -11 -2 27 1 30 5 5 3 -21 4 -21 4 12 1 22 3 36
9 41 4 4 7 6 7 4 0 -2 4 1 9 7 5 6 11 11 13 11 3 0 -2 -7 -11 -17z m-136 -33
c0 -27 -2 -35 -10 -42 -10 -9 -10 -9 -9 35 l1 45 3 -40 3 -40 1 45 c1 52 11
50 11 -3z m-42 26 c1 -4 -1 -11 -4 -15 -4 -4 -6 -24 -5 -53 1 -26 0 -43 -3
-39 -2 3 -3 22 -3 42 2 30 1 34 -6 29 -5 -4 -7 -5 -7 -1 0 3 2 6 4 6 7 0 19
26 17 37 -1 6 0 9 2 7 2 -3 5 -8 5 -13z m132 0 c0 -10 -1 -12 -5 -6 -4 6 -5 5
-6 -5 0 -12 -1 -12 -3 -1 -1 6 1 14 5 18 9 10 9 10 9 -6z m219 0 c1 -3 -1 -6
-4 -6 -3 0 -5 2 -5 5 0 9 -10 5 -15 -6 -4 -11 -4 -11 -5 2 0 14 24 19 29 5z
m-80 -27 c-15 -11 -18 -11 -21 0 -1 5 -2 3 -2 -5 -1 -14 -9 -19 -12 -8 -2 4
-2 3 -1 -2 0 -5 -1 -9 -3 -9 -3 0 -5 3 -5 6 -1 4 -3 1 -5 -6 -3 -12 -3 -12 -6
-2 -2 9 1 14 16 24 23 15 24 15 27 4 1 -5 2 -3 2 5 1 7 5 16 10 18 14 9 15
-14 0 -25z m-1054 -14 c6 -19 19 -69 30 -111 27 -105 68 -259 74 -275 3 -8 3
-15 1 -17 -3 -1 -5 -1 -5 0 0 5 -60 225 -65 238 -2 7 -15 51 -28 98 -12 46
-24 88 -25 93 -2 5 0 9 2 9 3 0 10 -16 16 -35z m800 -6 c0 -22 -1 -39 -3 -38
-2 3 -4 60 -2 77 2 17 5 -7 5 -39z m166 14 l0 -15 4 15 c4 14 4 14 5 2 1 -12
1 -12 5 -2 3 7 4 8 5 1 0 -4 -5 -11 -12 -16 -12 -8 -18 5 -18 37 0 14 10 -6
11 -22z m-180 -22 c-2 -50 -5 -54 -5 -7 -1 22 1 41 3 41 2 0 3 -15 2 -34z m89
17 c0 -3 -4 -11 -10 -15 -12 -11 -16 4 -4 16 8 8 14 8 14 -1z m37 -6 c5 2 7
-4 7 -21 1 -23 -6 -24 -10 -1 -2 7 -2 4 -1 -6 0 -11 -1 -20 -4 -22 -2 -1 -4
12 -3 31 0 19 2 30 3 25 1 -5 5 -8 8 -6z m146 -31 c-2 -2 -6 0 -8 4 -3 4 -5 5
-5 3 0 -3 -3 -1 -7 5 -8 10 -10 7 -9 -13 1 -5 0 -5 -2 -1 -5 10 -11 7 -8 -5 1
-6 1 -10 -2 -8 -10 10 -7 29 7 36 13 7 43 -12 34 -21z m-296 -13 c1 -24 0 -34
-5 -39 -10 -8 -11 -5 -12 29 -1 43 1 45 5 5 l3 -35 1 39 c1 47 6 48 8 1z m458
-60 c0 -8 -1 -8 -7 -1 -5 4 -8 10 -8 13 0 3 -3 4 -6 4 -4 -1 -6 2 -5 7 1 6 -1
8 -6 6 -5 -2 -8 0 -8 5 0 5 -2 7 -5 6 -3 -2 -5 0 -5 5 0 4 -2 6 -5 5 -3 -2 -5
0 -5 5 0 5 -1 7 -3 6 -5 -5 -17 9 -17 19 0 8 -1 8 -5 2 -4 -6 -5 -5 -5 5 0 10
6 5 45 -33 25 -24 45 -49 45 -54z m-380 76 c-1 -6 -2 -9 -3 -5 -2 3 -5 5 -7 3
-3 -1 -3 -6 -2 -10 2 -4 1 -7 -2 -7 -9 0 -7 10 2 21 11 12 12 11 12 -2z m54
-10 c0 -20 0 -21 -4 -6 l-4 15 -1 -18 -2 -17 -2 16 c-1 13 6 30 13 31 0 0 1
-10 0 -21z m207 -25 c-15 -6 -16 -4 -13 14 2 13 2 17 -2 15 -4 -2 -6 1 -6 8 0
9 3 8 14 -11 13 -20 14 -23 7 -26z m-424 12 c36 -30 71 -65 50 -51 -14 10 -92
76 -92 78 0 5 9 -1 42 -27z m328 21 c0 -4 -2 -6 -4 -5 -3 2 -6 -1 -8 -5 -2 -6
-1 -7 4 -5 19 7 32 -42 14 -52 -9 -4 -10 -3 -12 15 -2 18 -1 20 7 18 5 -1 9 0
9 2 0 8 -10 11 -19 5 -13 -6 -15 22 -2 30 11 6 11 6 11 -3z m110 -14 c0 -5 2
-7 6 -5 5 3 5 2 0 -3 -8 -9 -16 1 -16 20 0 10 1 11 5 5 3 -4 5 -12 5 -17z
m-248 11 c3 -4 6 -14 7 -24 1 -17 1 -17 -7 -7 l-8 10 2 -10 c1 -6 -1 -13 -3
-17 -7 -11 -13 -6 -12 10 l0 17 4 -15 4 -15 0 18 c1 10 4 19 7 21 5 2 5 4 0 6
-6 3 -9 12 -3 12 1 0 5 -3 9 -6z m370 -11 c2 2 3 1 3 -1 0 -7 -14 -19 -26 -24
-5 -1 -9 -1 -9 2 0 3 5 5 10 5 6 0 10 2 10 5 0 3 -2 5 -4 3 -2 -1 -4 5 -5 13
-1 15 -1 15 8 5 5 -6 11 -9 13 -8z m-257 -1 c0 -4 -2 -6 -5 -4 -5 2 -7 -4 -5
-16 0 -4 -2 -8 -6 -10 -4 -2 -5 -1 -3 4 3 6 1 8 -6 8 -6 -1 -10 -3 -10 -5 0
-2 -2 -4 -5 -4 -11 0 -4 10 16 22 26 15 24 15 24 5z m57 -23 c-2 -9 -2 -10 2
-4 5 7 6 6 6 -1 0 -5 -4 -11 -10 -14 -9 -5 -10 -4 -10 12 0 12 2 18 7 18 5 0
6 -4 5 -11z m93 -10 c5 -15 7 -38 2 -26 -2 4 -6 5 -11 4 -7 -3 -7 -2 1 4 7 5
8 9 4 11 -4 2 -5 6 -3 9 2 4 -1 4 -10 2 -13 -3 -19 4 -7 9 13 5 18 2 24 -13z
m-135 -6 c0 -10 -2 -18 -5 -18 -3 0 -5 8 -5 18 0 9 2 17 5 17 3 0 5 -8 5 -17z
m-165 -3 c0 -8 -2 -15 -5 -15 -6 0 -7 21 -2 27 6 5 7 4 7 -12z m149 -6 l0 -16
-4 15 -4 15 0 -16 c-1 -23 -11 -27 -11 -5 0 15 4 21 16 23 2 0 4 -7 3 -16z
m-24 -9 c0 -12 -3 -16 -18 -22 -22 -10 -20 -10 -23 2 -2 6 -1 10 1 10 2 0 5
-4 7 -9 1 -7 2 -6 2 2 1 6 7 16 15 21 17 13 16 14 16 -4z m255 -18 c0 -2 -7 3
-15 11 -8 7 -15 16 -15 19 0 3 7 -2 15 -10 8 -9 15 -18 15 -20z m-120 18 c6 9
7 0 2 -13 -3 -6 -4 -6 -7 -1 -3 3 -3 -50 -2 -119 2 -68 4 -126 6 -127 1 -1 2
47 1 108 -1 123 0 147 5 65 l3 -55 1 60 c2 111 11 51 11 -74 0 -65 2 -119 4
-121 2 -1 3 16 2 37 -1 27 0 40 3 40 4 0 6 -20 6 -62 0 -34 2 -63 4 -65 5 -3
-1 251 -6 256 -2 2 -2 -25 0 -60 2 -45 2 -64 -2 -64 -10 0 -10 162 0 175 l8
10 4 -10 c1 -6 2 -12 0 -14 -2 -1 -3 0 -3 3 0 3 -2 6 -5 6 -8 0 -6 -18 3 -25
4 -3 7 -9 7 -13 0 -4 3 -12 7 -18 5 -9 8 -38 9 -118 1 -58 4 -108 6 -110 2 -2
2 42 0 97 -2 55 -2 98 1 96 2 -2 3 -14 3 -25 0 -15 1 -18 3 -12 7 16 11 -3 14
-62 4 -63 7 -72 7 -17 0 21 1 37 3 35 2 -1 3 -13 3 -24 0 -16 1 -19 4 -11 3 9
4 8 8 -5 2 -9 6 -20 10 -25 6 -9 6 -16 2 -35 -1 -3 -3 5 -5 17 l-3 23 -2 -25
-2 -25 -3 30 -3 30 -1 -27 c-1 -27 -9 -35 -12 -12 -2 7 -3 -3 -3 -22 -2 -78
-11 -42 -12 46 l-1 90 -2 -89 c-1 -82 -2 -89 -11 -94 -10 -5 -10 -3 -11 79
l-1 84 -3 -88 c-2 -48 -3 -80 -4 -71 -1 21 -11 16 -12 -6 0 -10 -2 -6 -4 12
l-3 28 -1 -29 -1 -28 -24 -10 -24 -10 -4 108 c-5 189 -4 275 5 264 7 -9 7 -9
7 10 0 14 1 18 5 12 4 -7 6 -7 10 0z m97 -10 c11 -11 13 -16 9 -23 -5 -9 -6
-9 -6 2 0 6 -2 10 -5 9 -3 -2 -5 1 -5 7 0 6 -2 9 -4 8 -3 -2 -6 0 -8 5 -4 11
4 8 19 -8z m-284 3 c-1 -5 -1 -8 2 -8 14 0 7 -19 -9 -25 -10 -4 -21 -7 -25 -9
-3 -1 -6 1 -6 4 0 3 2 4 5 3 3 -2 5 0 5 4 0 4 -3 8 -6 10 -5 1 -5 2 -1 3 4 0
10 -4 14 -8 4 -4 8 -5 8 -3 0 3 -2 7 -5 9 -3 1 -5 5 -5 9 0 3 2 3 5 -2 3 -4 5
-5 5 -2 1 2 3 0 5 -5 4 -10 4 -10 5 1 0 6 -2 11 -5 11 -3 0 -3 3 1 7 8 10 11
10 7 1z m332 -7 c0 2 4 0 10 -4 5 -5 8 -11 7 -13 -1 -2 1 -4 5 -4 5 0 8 -4 8
-11 -1 -11 -1 -11 -5 -1 -2 5 -4 7 -5 5 0 -8 -30 27 -30 36 1 7 1 7 5 -1 2 -6
4 -9 5 -7z m-40 -51 c0 -15 -6 -9 -18 15 -5 11 -11 20 -13 20 -2 0 -4 6 -4 14
0 12 1 11 18 -13 9 -14 17 -30 17 -36z m-410 45 c0 -5 -5 -12 -10 -15 -13 -7
-25 -1 -13 6 4 2 11 3 14 1 4 -2 5 -1 3 4 -2 4 -2 9 0 11 5 5 6 3 6 -7z m75 3
c0 -8 -2 -9 -16 -10 -4 0 -8 -4 -9 -8 -3 -5 -4 -5 -7 2 -2 6 1 9 12 11 8 2 14
5 12 8 -1 2 0 4 3 4 3 0 5 -3 5 -7z m197 -186 c2 -126 1 -191 -2 -194 -3 -3
-5 30 -5 102 0 59 -2 146 -3 194 -2 56 -2 86 1 86 4 0 7 -69 9 -188z m-15 -12
c1 -106 0 -172 -1 -147 -5 56 -7 345 -4 341 2 -1 4 -89 5 -194z m-12 24 c0
-92 2 -178 3 -193 2 -16 1 -26 -2 -26 -2 0 -6 53 -8 136 -4 185 -4 249 2 249
2 0 4 -68 5 -166z m-13 -33 c3 -141 2 -191 -2 -191 -4 0 -5 14 -5 44 2 104 0
277 -3 275 -1 -2 -2 -76 -2 -164 0 -89 -1 -160 -3 -159 -2 2 -4 86 -6 188 -2
182 -5 245 -7 126 0 -46 -1 -56 -4 -37 -2 13 -4 -46 -4 -132 -1 -100 -3 -156
-6 -156 -3 0 -5 68 -5 193 0 121 2 192 5 192 3 0 4 -7 3 -16 -2 -16 -2 -16 3
2 5 15 26 33 32 27 0 0 2 -87 4 -192z m193 179 c0 -9 -2 -14 -5 -12 -3 1 -5 8
-5 15 0 7 2 12 5 12 3 0 5 -7 5 -15z m-49 -6 c2 -24 2 -59 -1 -53 -8 14 -11
30 -6 27 7 -4 8 2 1 19 -3 9 -3 13 0 13 3 0 5 -3 6 -6z m-197 -193 l-1 -193
-3 172 c-3 188 -5 178 -6 -36 0 -77 -2 -139 -5 -139 -2 0 -4 86 -4 192 0 193
0 196 16 198 2 0 3 -87 3 -194z m-25 46 c-1 -27 -2 -7 -2 46 0 52 1 74 2 49 1
-26 1 -69 0 -95z m-8 9 c0 -74 2 -110 4 -91 2 20 3 -7 3 -67 0 -60 -1 -80 -2
-50 l-3 50 -6 -53 c-5 -48 -6 -37 -6 141 -1 127 1 194 4 194 3 0 5 -45 6 -124z
m296 70 c-2 -7 -2 -7 2 -1 4 6 6 4 9 -7 2 -7 2 -15 1 -16 -3 -3 -29 36 -29 42
0 3 -3 7 -7 11 -4 3 -6 10 -4 15 2 8 4 6 16 -12 9 -13 14 -27 12 -32z m-466
42 c2 -4 -3 -10 -11 -15 -14 -8 -15 -8 -15 0 0 4 2 6 5 5 3 -2 5 -1 5 2 0 3 2
4 5 3 3 -2 5 0 5 4 0 10 3 10 6 1z m149 -380 c-6 -6 -7 338 -1 370 2 11 4 -67
5 -173 1 -124 -1 -194 -4 -197z m285 360 c5 -11 9 -20 9 -21 -2 -2 -23 29 -27
41 -6 15 7 2 18 -20z m-294 -132 c-1 -84 -2 -171 -3 -193 0 -22 -1 47 -2 153
-1 107 1 194 3 194 2 0 3 -69 2 -154z m379 137 c3 7 4 7 5 2 0 -10 -19 -28
-24 -23 -2 2 0 5 3 8 4 2 7 5 6 7 -1 13 2 23 4 11 2 -14 3 -14 6 -5z m-391
-181 c0 -106 -3 -194 -5 -195 -5 -3 -6 380 -1 385 2 2 4 3 5 3 1 0 2 -87 1
-193z m367 146 c-5 -9 -9 13 -6 31 l2 19 3 -23 c2 -12 2 -25 1 -27z m-385
-344 c-3 -3 -5 48 -5 124 0 70 -2 129 -3 131 -2 1 -4 -58 -4 -132 -1 -132 -1
-131 -4 58 l-3 193 -1 -194 c-1 -134 -3 -194 -6 -194 -4 0 -5 53 -4 175 1 97
0 170 -2 164 -2 -6 -3 -87 -4 -179 0 -97 -3 -162 -5 -154 -2 8 -4 27 -3 43 1
16 2 98 2 182 1 137 6 192 12 138 l2 -16 1 18 c1 14 3 18 12 21 10 2 10 1 8
-52 -2 -30 -1 -57 2 -61 2 -4 4 20 5 59 1 35 2 -22 3 -128 1 -108 -1 -194 -3
-196z m-49 252 c-1 -62 -2 -144 -2 -181 0 -36 -1 -65 -3 -64 -4 4 -2 345 3
358 4 12 5 -19 2 -113z m-127 89 c1 15 2 14 7 -12 4 -17 9 -34 10 -39 2 -4 2
-9 -1 -11 -3 -2 -7 8 -9 21 -2 17 -4 21 -7 14 -4 -13 -10 6 -9 30 0 14 0 14 4
-3 l4 -17 1 17z m43 3 c20 -20 18 -63 -3 -63 -15 0 -21 10 -28 56 -4 23 11 27
31 7z m72 -129 c0 -77 -1 -140 -2 -138 -8 8 -8 279 0 279 1 0 2 -63 2 -141z
m-11 112 c-1 -70 -7 -94 -8 -35 -1 37 1 59 4 59 3 0 5 -11 4 -24z m-14 -10
c-1 -19 -2 -25 -4 -16 -4 11 -2 45 2 45 1 0 2 -13 2 -29z m-11 -25 c9 -42 13
-76 7 -76 -2 0 -1 -17 5 -41 4 -23 9 -54 9 -69 0 -37 8 -81 21 -116 7 -21 10
-36 8 -54 -2 -23 1 -32 8 -20 4 5 16 -3 17 -12 3 -16 4 -52 2 -51 -2 1 -11 -2
-21 -7 -10 -5 -15 -10 -11 -10 4 0 11 2 17 5 7 4 9 4 7 0 -2 -3 -1 -5 2 -5 3
0 5 3 5 6 0 3 1 4 3 3 4 -5 -4 -19 -13 -22 -5 -1 -9 -7 -9 -12 1 -6 4 -9 8 -8
14 6 0 -6 -18 -15 -10 -5 -16 -10 -13 -11 4 -1 16 5 27 12 12 8 19 15 16 16
-8 2 -2 11 5 9 4 -1 5 -1 3 1 -1 1 -1 11 2 24 3 15 3 31 -1 48 -12 57 31 21
48 -40 8 -29 19 -45 14 -20 -2 8 -2 10 2 5 7 -10 12 13 5 26 -5 9 -5 10 3 4 9
-8 11 -1 2 9 -5 5 -5 6 0 3 7 -4 7 36 0 40 -2 2 -3 5 -1 8 2 4 0 5 -6 2 -9 -3
-9 -3 0 4 10 8 21 2 15 -8 -1 -2 0 -5 4 -7 4 -2 4 -1 2 3 -3 4 -1 5 8 3 6 -2
8 -2 5 0 -6 3 -6 4 0 8 4 3 3 4 -6 2 -12 -3 -12 -3 -2 5 9 8 9 8 -2 4 -9 -2
-11 -1 -9 3 3 5 2 5 -7 0 -9 -5 -10 -5 -7 0 2 5 1 6 -5 4 -4 -2 -8 -1 -8 1 0
3 21 4 56 3 31 -2 53 -1 48 0 -5 2 -8 5 -6 7 1 3 0 5 -3 5 -3 0 -4 2 -3 5 4 6
-14 11 -30 7 l-14 -2 15 7 c8 4 12 7 8 8 -4 0 -5 2 -4 4 1 2 9 3 17 2 8 -1 19
1 24 4 9 5 9 5 -1 3 -6 -2 -12 -1 -14 1 -2 3 8 6 22 7 14 1 25 0 25 -2 0 -1 9
-4 20 -5 11 -1 20 0 20 2 0 2 -8 4 -18 4 -26 0 -20 3 13 7 16 1 25 1 21 -2 -4
-2 -6 -6 -4 -9 2 -3 0 -6 -3 -8 -4 -1 -4 -2 1 -3 10 0 19 -18 23 -45 2 -11 5
-21 8 -23 9 -6 10 16 3 37 -10 28 -7 35 3 9 9 -20 10 -46 3 -50 -3 -2 -5 -6
-5 -9 0 -2 2 -3 5 -1 3 1 5 0 5 -3 0 -3 -3 -7 -7 -8 -5 -2 -8 -5 -8 -8 0 -2 3
-3 6 -1 4 1 0 -3 -7 -10 -15 -13 -20 -24 -6 -13 4 4 7 4 7 1 0 -3 -10 -12 -23
-19 -12 -7 -21 -14 -20 -16 2 -1 8 1 15 6 19 12 22 10 6 -5 -12 -9 -13 -11 -5
-9 9 3 9 2 -2 -7 -6 -6 -11 -13 -10 -16 2 -7 -6 -12 -33 -23 -10 -4 -18 -9
-17 -10 2 -1 11 1 22 5 10 4 19 8 20 8 2 0 -2 -21 -4 -22 -1 -1 -14 -6 -28
-13 -15 -7 -25 -13 -22 -14 3 -1 14 3 26 8 11 6 20 8 20 5 0 -2 -12 -10 -26
-16 -55 -24 -53 -23 -36 -20 8 2 24 7 35 12 17 7 21 8 19 2 -2 -4 -5 -7 -8 -7
-2 0 -4 -2 -3 -4 1 -12 -4 -16 -30 -26 -16 -6 -33 -12 -38 -13 -13 -2 -17 -7
-5 -7 8 0 28 7 53 17 5 2 9 2 9 -1 0 -5 -8 -9 -42 -21 -8 -3 -13 -6 -12 -8 1
-1 12 1 23 5 22 8 30 2 15 -11 -8 -7 -66 -18 -75 -14 -3 1 0 2 7 3 8 0 14 2
14 4 0 5 -34 1 -38 -5 -1 -2 0 -4 4 -4 4 -1 2 -3 -3 -5 -10 -5 25 -3 57 3 11
2 11 2 3 -3 -10 -4 -9 -5 2 -4 7 1 12 4 11 8 0 3 1 6 4 6 7 0 6 -8 -1 -14 -9
-7 -39 -13 -39 -7 0 5 -49 2 -60 -4 -4 -3 6 -4 25 -3 18 1 26 1 19 0 -8 -2
-14 -5 -14 -7 0 -2 4 -3 9 -2 10 3 36 -6 36 -12 0 -2 -12 -7 -28 -11 -19 -5
-27 -9 -25 -13 2 -5 -1 -7 -7 -7 -6 0 -9 2 -8 5 2 2 -2 3 -8 1 -10 -3 -10 -3
-2 -5 9 -2 9 -12 -2 -15 -4 -1 -5 0 -3 3 2 4 0 6 -4 6 -4 0 -9 -2 -10 -5 -2
-3 0 -5 5 -5 4 0 7 -2 5 -4 -1 -2 7 -4 17 -4 12 0 17 2 14 4 -4 2 -4 4 -1 4 2
0 1 2 -3 5 -6 4 -6 5 1 5 5 0 9 -2 9 -5 0 -3 2 -4 6 -2 3 2 3 5 1 6 -10 8 -5
15 14 21 11 3 21 4 23 3 1 -2 0 -3 -3 -3 -4 0 -5 -2 -3 -6 2 -3 0 -4 -7 -2 -6
2 -12 1 -14 -3 -2 -3 -1 -4 2 -2 12 7 15 -2 7 -17 -4 -8 -10 -13 -13 -11 -2 1
-3 0 -1 -3 4 -7 -6 -27 -11 -24 -2 1 -9 -1 -16 -5 l-12 -7 14 3 15 4 -12 -20
c-6 -11 -16 -24 -22 -29 -7 -7 -8 -9 -2 -7 6 3 7 0 6 -13 -1 -8 -3 -24 -4 -34
-1 -11 -3 -20 -5 -22 -1 -2 0 -7 3 -10 4 -6 3 -7 -7 -7 -9 0 -10 1 -4 5 5 3 5
5 1 5 -3 0 -7 -3 -10 -7 -2 -3 -17 -9 -33 -13 -17 -3 -33 -8 -36 -11 -4 -2
-15 -5 -26 -5 -18 -1 -19 -2 -12 -8 8 -6 8 -7 0 -4 -6 2 -13 -1 -19 -7 -10
-10 -14 -4 -11 16 1 2 -1 4 -4 4 -8 0 -6 14 4 20 7 5 7 5 -3 2 -8 -2 -11 -1
-9 2 2 4 1 6 -3 6 -3 0 -2 3 4 7 9 7 8 7 -10 5 l-20 -2 17 5 c10 3 20 8 23 11
3 4 2 5 -3 3 -4 -1 -13 -4 -20 -6 l-12 -3 12 7 13 8 -13 0 c-21 -2 -28 1 -15
5 10 3 8 4 -12 5 -33 0 -28 3 12 7 22 2 29 1 23 -2 -10 -5 -10 -5 -1 -4 5 1
10 5 11 10 1 10 0 11 -22 4 -9 -2 -26 -2 -40 0 l-23 4 25 0 c29 -1 57 5 57 11
0 2 -7 2 -16 0 -9 -3 -20 -5 -24 -5 -4 1 7 5 24 10 31 9 52 19 23 12 -27 -7
-45 -6 -43 4 1 6 -3 11 -10 13 -9 4 -7 5 13 7 28 3 41 13 24 17 -12 3 -13 13
-1 16 6 1 6 1 1 -3 -6 -4 -5 -6 3 -8 6 -2 11 -6 11 -8 0 -3 4 -3 8 -2 7 3 6 5
-4 10 -7 4 -9 7 -4 7 4 1 1 3 -7 6 -12 4 -16 4 -21 -3 -3 -5 -12 -8 -23 -8
-13 1 -15 1 -6 5 8 3 6 4 -10 6 -18 2 -16 2 8 3 16 1 30 3 31 6 2 2 -10 3 -28
2 -31 -1 -26 1 15 6 11 1 21 5 21 8 0 2 -2 3 -4 2 -8 -5 -56 -7 -56 -3 0 3 3
5 6 5 4 1 2 3 -3 5 -8 3 -4 5 15 5 l25 1 -22 4 c-21 3 -34 10 -21 10 6 0 6 1
1 4 -4 3 8 6 31 7 22 1 41 5 45 9 4 5 4 6 -4 3 -20 -7 -67 -9 -70 -4 -3 5 1 5
12 4 8 -2 15 -1 15 2 0 3 -8 5 -17 5 -16 0 -27 10 -12 10 4 1 -2 4 -13 8 -11
4 -23 10 -25 12 -3 3 4 2 15 -3 24 -10 84 -12 93 -2 5 5 4 5 -5 3 -16 -5 -67
-4 -72 1 -2 2 11 3 29 2 18 -1 35 0 37 2 3 3 -9 5 -27 5 -17 0 -35 3 -40 6 -9
5 -6 5 15 3 l25 -2 -25 7 c-25 7 -44 20 -22 15 11 -3 11 -3 2 6 -11 9 0 8 24
-1 4 -2 8 -1 8 2 0 3 -8 6 -17 8 -10 2 -19 5 -20 8 -2 2 4 2 13 0 9 -3 23 -5
31 -5 17 1 14 3 -12 7 -10 2 -23 6 -28 10 -9 7 -9 7 3 5 12 -3 12 -3 -2 10
-16 13 -12 18 4 5 6 -4 13 -7 18 -7 4 0 0 5 -10 11 -16 9 -16 11 -8 17 5 3 8
9 6 11 -2 3 7 2 20 -2 28 -8 34 -9 30 -2 -2 3 7 5 24 5 25 0 42 9 19 10 -7 1
-7 1 2 5 8 3 7 4 -8 7 -22 5 -45 18 -45 27 0 3 -3 6 -6 6 -3 0 -4 1 -3 3 4 4
19 -4 16 -9 -3 -4 9 -10 34 -16 21 -5 17 5 -5 10 -18 5 -18 6 9 4 l28 -2 -25
7 c-16 5 -19 7 -9 5 9 -1 16 0 16 3 0 3 -8 5 -19 5 -15 1 -17 2 -8 5 l10 4
-10 1 c-9 1 -8 2 2 5 12 3 12 3 -4 7 -9 2 -17 6 -19 9 -2 3 0 4 6 2 28 -8 38
-9 35 -4 -2 4 1 6 10 6 l15 1 -15 4 c-10 3 -16 3 -17 0 -2 -7 -17 -6 -26 1 -6
4 -6 5 1 2 15 -5 10 5 -6 12 -17 7 -26 17 -12 12 6 -2 3 2 -5 10 -11 9 -13 12
-5 10 l10 -4 -10 12 c-10 10 -9 10 9 -2 11 -7 23 -13 27 -13 5 0 0 5 -10 10
-23 12 -30 22 -11 15 19 -7 21 -3 2 5 -19 8 -31 21 -15 16 11 -2 13 8 3 15 -3
2 -3 4 2 4 5 0 4 2 -3 7 -9 7 -9 7 0 11 7 3 7 4 2 8 -5 3 -4 4 4 4 8 0 8 1 2
5 -7 4 -7 5 0 5 7 0 7 1 0 5 -6 4 -6 5 3 5 l10 1 -10 4 c-7 3 -8 4 -3 5 6 0 5
2 -2 8 -10 7 -10 7 0 7 7 1 7 2 -3 5 l-12 4 12 1 13 1 -13 4 c-12 4 -12 4 -2
5 6 0 13 3 15 6 2 3 2 4 -1 3 -2 -2 -8 1 -12 5 -6 7 -6 8 1 5 5 -2 10 -1 12 1
1 3 -1 5 -6 5 -9 1 -8 1 0 5 9 3 9 4 -5 9 -14 6 -14 6 -1 3 8 -1 14 0 13 2 -2
9 7 21 13 16 7 -6 36 1 51 12 13 10 0 10 -16 0 -15 -10 -41 -6 -32 6 5 6 4 7
-6 8 -11 0 -11 0 0 3 6 1 10 4 8 6 -3 6 20 12 30 8 5 -1 8 -1 8 2 0 6 -26 7
-44 2 -9 -3 -10 -4 -5 -8 5 -4 5 -4 -1 -3 -4 2 -7 6 -6 11 1 4 -1 8 -5 8 -3 0
-4 1 -2 3 1 2 6 1 10 -3 7 -5 8 -5 5 2 -5 12 5 17 30 15 17 -2 19 -2 11 3 -6
4 -20 5 -42 3 -21 -2 -31 -2 -29 2 2 3 -1 5 -8 5 -11 1 -11 1 -1 5 9 4 9 4 -3
5 l-12 1 12 4 c12 4 11 4 -5 5 l-17 1 15 4 15 4 -15 1 -15 1 15 4 15 4 -15 1
c-15 1 -15 1 -3 5 l13 4 -13 1 c-7 0 -10 2 -6 3 4 2 5 8 3 16 l-3 14 9 -15 c6
-11 9 -13 15 -8 4 4 20 8 36 9 l29 4 -1 29 c-1 35 9 29 17 -11z m486 10 c0 -6
-2 -10 -5 -9 -2 2 -3 8 -2 14 2 8 2 10 -2 5 -6 -8 -11 2 -7 13 3 9 16 -9 16
-23z m-30 -18 c0 -5 1 -8 3 -7 2 2 7 -1 12 -7 12 -15 13 -7 1 10 -15 21 -17
26 -12 26 5 0 23 -33 24 -45 0 -5 -2 -8 -6 -8 -4 0 -7 2 -7 5 -1 3 -3 1 -5 -4
-4 -9 -6 -6 -5 5 1 2 -2 5 -5 7 -3 2 -7 12 -8 23 -2 15 -1 18 3 12 2 -4 5 -12
5 -17z m-239 -112 c1 -69 0 -126 -2 -126 -2 0 -4 58 -4 128 0 71 1 128 3 126
1 -1 3 -59 3 -128z m226 94 c-1 -3 -1 -5 2 -5 5 0 31 -64 31 -75 0 -4 -4 0 -7
9 -7 15 -14 31 -31 68 -7 16 -4 30 4 16 2 -4 3 -10 1 -13z m-1348 1 c18 -17
16 -31 -2 -20 -7 5 -14 -4 -10 -10 2 -3 9 -4 18 -3 11 1 14 0 12 -6 -2 -4 0
-10 4 -13 10 -8 120 -224 117 -229 -2 -2 1 -8 6 -13 5 -5 11 -14 12 -19 3 -7
-2 -4 -11 7 -24 28 -17 12 9 -22 25 -32 47 -67 28 -45 -5 6 -30 37 -54 69 -25
33 -60 77 -77 100 -45 56 -121 161 -121 167 0 4 53 46 58 46 1 0 6 -4 11 -9z
m513 -49 c19 -18 -2 -91 -24 -85 -6 2 -19 5 -29 6 -17 3 -19 4 -12 11 5 7 23
63 23 74 0 6 35 1 42 -6z m849 -34 c0 -22 1 -24 4 -10 l4 15 0 -17 c1 -14 -13
-25 -15 -12 -2 19 -1 60 2 55 2 -4 4 -18 5 -31z m-931 -27 l0 -18 32 -8 c37
-9 38 -9 52 15 l11 18 -3 -23 c-2 -13 -8 -26 -14 -32 -8 -6 -8 -8 -2 -6 9 3 9
-7 -1 -19 -3 -5 -5 -10 -3 -11 1 -2 0 -7 -3 -11 -5 -7 -5 -7 1 -4 4 3 3 0 -2
-7 -6 -6 -7 -10 -3 -8 5 4 4 1 -2 -7 -10 -15 -11 -42 -2 -37 4 1 2 -1 -3 -5
-5 -4 -8 -10 -6 -13 2 -3 1 -5 -2 -5 -4 0 -4 -2 1 -8 4 -6 5 -8 0 -5 -4 3 -5
0 -4 -8 1 -6 2 -13 3 -14 0 -1 3 1 5 5 5 7 6 7 4 0 -2 -4 -6 -7 -11 -6 -5 1
-8 -1 -6 -4 2 -3 1 -5 -3 -5 -4 0 -3 -3 4 -8 9 -8 9 -8 -3 -4 -7 2 -11 2 -9
-1 2 -2 -1 -8 -7 -13 -9 -7 -9 -9 -2 -9 4 0 8 3 8 6 0 3 1 4 3 3 6 -6 -4 -18
-15 -16 -10 2 -10 1 -1 -5 9 -8 3 -32 -7 -25 -3 1 -3 -1 -2 -6 2 -5 2 -7 -1
-6 -2 2 -5 -6 -5 -16 0 -14 2 -20 7 -20 6 0 6 -1 0 -8 -6 -8 -5 -8 4 -5 9 3 9
3 0 -4 -6 -5 -7 -8 -4 -8 13 0 -9 -29 -26 -36 -10 -3 -18 -8 -18 -10 0 -5 28
8 49 25 l17 12 -11 -22 c-6 -12 -17 -28 -24 -36 -8 -8 -10 -13 -6 -12 4 1 15
13 24 26 l16 24 0 -17 c0 -39 -18 -77 -45 -95 -7 -5 -10 -9 -6 -9 3 0 7 2 9 5
5 8 12 6 9 -4 -2 -5 5 0 14 11 12 13 18 17 20 12 1 -3 4 5 5 19 4 30 14 58 17
47 2 -4 4 -11 6 -15 1 -4 3 -15 4 -25 2 -10 5 -18 7 -19 2 -1 2 -7 -1 -14 -4
-9 -4 -14 0 -18 3 -3 6 -8 6 -11 0 -3 -2 -2 -5 2 -4 6 -5 5 -5 -4 0 -6 2 -10
5 -8 8 4 6 -6 -2 -13 -5 -3 -8 -10 -8 -14 0 -5 -6 -21 -13 -36 -7 -14 -12 -29
-11 -31 1 -3 9 11 18 30 17 37 26 46 23 22 l-2 -13 7 13 c11 18 14 18 7 -1 -3
-8 -7 -15 -9 -15 -3 0 -5 -5 -5 -11 0 -8 1 -9 8 -4 9 8 9 3 1 -6 -5 -5 -6 -18
-4 -49 3 -41 3 -41 5 -12 1 26 2 27 5 12 3 -15 3 -29 0 -55 0 -5 -2 -5 -5 3
-4 8 -4 7 -5 -7 0 -10 -2 -15 -5 -13 -3 1 -5 -4 -5 -13 0 -9 -2 -14 -5 -13 -2
2 -5 -2 -6 -8 -2 -6 -3 2 -4 19 l-2 30 -3 -30 -3 -30 -1 33 c-1 19 -3 34 -6
34 -2 0 -3 -14 -2 -31 2 -23 1 -30 -3 -24 -4 7 -6 7 -10 0 -4 -5 -5 -1 -5 16
0 13 -3 25 -6 27 -4 2 -4 -4 -2 -24 1 -17 1 -23 -2 -16 -2 5 -4 16 -5 23 0 8
-2 14 -5 14 -5 0 -3 -14 3 -34 1 -3 0 -6 -3 -6 -3 0 -5 5 -5 12 0 15 -5 28
-10 28 -2 0 -3 -7 -2 -16 l2 -16 -6 17 c-4 10 -10 18 -16 19 -6 1 -8 0 -5 -4
2 -4 1 -5 -2 -3 -4 2 -5 6 -4 8 2 2 -3 5 -11 7 -9 3 -11 5 -6 8 9 6 -2 11 -16
8 -6 -2 -9 -2 -5 0 3 2 5 5 3 7 -1 3 1 4 5 2 4 -2 11 -1 16 2 9 5 8 6 -3 10
-44 18 -50 23 -14 14 3 -1 5 0 3 1 -2 1 -2 5 -1 9 2 4 0 7 -3 7 -3 0 -4 -3 -2
-6 2 -4 1 -5 -5 -2 -5 1 -11 3 -15 3 -3 1 -1 3 5 5 8 4 8 4 1 5 -5 0 -9 2 -9
4 -1 2 -2 8 -2 13 -2 7 0 8 6 5 5 -2 15 -4 24 -5 8 -1 11 0 6 1 -5 2 -9 6 -9
10 0 4 -2 7 -5 7 -3 0 -4 -2 -2 -5 1 -3 0 -5 -3 -5 -3 0 -5 4 -5 10 0 7 2 9 9
7 7 -2 7 -2 -1 5 -12 9 -19 10 -17 2 1 -3 -2 -6 -6 -8 -7 -2 -7 -1 0 4 7 4 7
5 0 5 -6 0 -6 1 -1 4 5 3 3 6 -8 11 -9 3 -17 5 -20 3 -2 -1 -4 1 -4 5 0 9 0 9
24 -3 23 -12 32 -10 11 2 l-14 8 15 -3 c14 -2 14 -2 4 4 -10 6 -11 8 -4 19 5
9 7 10 7 4 0 -6 4 -9 11 -9 11 1 11 1 2 5 l-10 4 10 1 c7 1 4 3 -10 10 -23 11
-30 12 -26 5 5 -7 -7 -12 -14 -5 -4 4 -3 5 4 2 6 -2 9 -2 6 2 -2 3 -1 7 2 9 4
2 2 5 -3 10 -9 6 -8 6 3 4 11 -2 11 -2 4 3 -5 3 -9 8 -9 11 0 2 4 1 8 -3 10
-10 32 -11 32 0 0 4 2 6 5 5 3 -2 5 -1 5 2 0 4 -4 5 -11 3 -7 -1 -15 0 -19 3
-6 4 -6 4 1 2 5 -1 9 0 9 2 0 4 4 4 11 2 7 -2 9 -1 7 2 -2 4 -7 6 -12 6 -7 0
-8 1 -1 5 6 5 5 5 -3 3 -6 -2 -13 0 -17 4 -3 5 -4 8 -2 8 2 0 -3 7 -11 16
l-14 17 16 -15 c8 -8 15 -16 14 -18 -1 -1 3 -2 10 -2 7 0 12 1 12 3 0 2 -3 4
-7 4 -3 0 -13 7 -21 15 -8 9 -12 15 -9 15 10 -2 17 0 15 5 -2 3 -1 5 1 5 3 0
7 -2 9 -5 1 -3 0 -5 -4 -5 -3 0 -4 -1 -3 -3 1 -1 8 0 14 2 10 4 10 5 3 8 -5 1
-7 5 -6 8 2 3 0 4 -3 2 -4 -1 -10 1 -14 5 -5 7 -5 8 2 11 7 3 7 5 2 11 -5 6
-5 7 0 4 8 -5 8 3 0 12 -5 5 -5 6 0 3 7 -4 9 30 1 35 -3 1 -5 5 -5 8 0 2 2 3
5 2 3 -2 5 -1 5 2 0 3 -2 5 -5 5 -3 0 -5 3 -5 6 0 4 7 -2 16 -12 16 -20 22
-23 22 -12 0 4 -1 6 -4 5 -5 -3 -14 14 -13 27 1 10 15 12 28 4 3 -2 6 -1 6 1
0 3 -4 7 -10 8 -5 2 -11 7 -12 12 -3 7 -2 7 3 2 12 -12 16 -6 4 7 l-12 14 12
-9 c17 -11 24 -10 10 1 -10 8 -11 10 -3 13 5 1 7 1 6 -2 -2 -2 -1 -6 2 -7 3
-2 5 -1 6 2 0 3 1 8 1 11 1 4 -1 10 -4 14 -4 5 -4 6 1 3 9 -5 7 2 -3 10 -8 7
-8 7 2 5 29 -8 38 -8 18 0 -11 4 -21 10 -21 13 0 2 2 3 5 1 14 -8 33 -10 39
-4 5 6 4 6 -8 4 -7 -1 -16 -1 -18 2 -8 6 -19 26 -14 26 2 0 7 -6 10 -12 6 -14
21 -18 21 -6 0 5 7 8 21 9 12 1 22 4 23 8 2 6 -2 7 -15 4 -10 -1 -22 0 -31 5
l-15 7 18 -2 c11 -1 18 0 16 2 -1 3 0 5 4 6 4 0 9 1 12 1 9 1 28 17 23 20 -3
2 -6 1 -7 -1 -1 -3 -17 -2 -36 2 l-35 7 33 -2 c32 -1 33 -1 23 8 -6 5 -14 9
-17 9 -4 0 -7 3 -7 8 0 4 -4 7 -9 8 -8 0 -8 0 1 3 8 2 8 3 -3 15 -11 11 -11
12 -1 7 13 -7 15 7 3 21 -5 5 -6 8 -2 6 3 -2 6 -1 6 2 0 3 2 4 5 2 4 -2 4 1 0
9 -6 11 -6 11 3 4 8 -7 8 -7 2 4 -5 10 -5 11 0 8 5 -2 6 -1 4 5 -2 4 -2 8 1 8
3 0 5 -8 5 -19z m-478 2 c-2 -5 -1 -8 2 -8 3 0 4 -4 3 -9 -3 -7 -2 -7 3 -3 5
5 16 -6 53 -52 26 -32 54 -66 61 -76 31 -38 96 -124 96 -127 0 -2 -29 19 -64
46 -139 106 -146 112 -141 119 6 6 -1 14 -7 9 -9 -9 3 -21 67 -73 38 -31 69
-57 68 -58 -3 -3 -49 31 -89 66 -16 13 -31 23 -32 22 -3 -3 130 -109 136 -109
2 0 -1 5 -5 10 -17 19 -2 10 45 -25 43 -33 58 -49 60 -62 0 -3 2 -5 5 -5 2 1
10 -6 17 -15 16 -20 9 -15 -55 35 -29 23 -77 60 -107 82 -31 23 -62 47 -70 55
-9 7 -39 31 -67 52 -58 45 -55 39 -38 63 35 46 65 78 59 63z m1373 -12 c0 -14
1 -17 5 -11 4 6 5 4 5 -7 0 -12 -1 -14 -5 -8 -4 6 -5 6 -8 -1 -2 -5 -5 -8 -8
-6 -2 1 -4 0 -4 -3 0 -3 -2 -5 -5 -5 -9 0 -5 9 5 12 8 3 9 7 7 26 -2 15 -2 22
2 22 4 0 6 -8 6 -19z m-1045 -49 c0 -20 1 -22 12 -22 7 0 11 -3 11 -7 0 -6 -3
-7 -13 -5 -17 5 -8 -4 11 -10 26 -9 27 -38 2 -38 -10 0 -18 2 -18 5 0 5 7 7
19 5 3 0 6 4 6 10 0 6 -3 10 -10 11 -5 0 -13 1 -16 1 -5 0 -29 75 -29 90 0 3
6 -1 13 -7 9 -9 12 -17 12 -33z m1014 4 c-1 -6 -6 -9 -19 -9 -16 -1 -17 -1 -8
5 5 4 12 6 17 4 5 -2 6 -1 4 3 -2 3 -1 6 1 6 3 0 5 -4 5 -9z m-589 -5 c-2 -5
-8 -12 -12 -16 -5 -3 -8 -9 -8 -12 0 -3 7 2 15 11 33 36 17 12 -31 -48 -29
-35 -63 -77 -76 -93 -13 -17 -26 -32 -28 -35 -5 -5 -65 41 -65 50 0 9 5 9 15
-1 6 -5 12 -6 21 -3 8 3 18 3 31 -1 l18 -7 27 31 c56 66 74 88 72 91 -2 1 -16
-13 -32 -33 -16 -19 -30 -34 -31 -33 -1 2 85 108 88 108 1 0 -1 -4 -4 -9z
m100 -89 c1 -25 -2 -36 -10 -43 -5 -5 -6 -4 -3 9 2 8 5 24 6 36 4 26 6 25 7
-2z m-895 -2 c-6 -12 -1 -13 7 -2 6 8 7 8 19 0 9 -7 10 -8 2 -7 -5 1 -10 -1
-12 -5 -1 -3 2 -6 6 -6 5 0 7 -2 6 -4 -1 -2 1 -11 5 -18 4 -8 7 -17 7 -20 0
-6 71 -40 145 -70 23 -10 50 -25 60 -33 10 -9 24 -19 31 -23 8 -4 14 -8 14
-10 0 -1 -6 1 -14 5 -31 16 -122 47 -130 45 -6 -2 -7 -2 -2 2 6 4 -42 29 -143
74 -35 15 -34 14 -23 40 5 11 10 25 12 31 3 6 7 11 10 11 4 0 4 -3 0 -10z
m751 -74 c-6 -65 -10 -81 -16 -81 -5 0 -6 -1 -1 -6 11 -11 15 2 23 71 7 65 7
61 1 -57 -4 -68 2 -43 9 38 4 39 7 62 7 50 1 -22 -7 -124 -12 -165 l-3 -22
-66 3 c-94 6 -125 12 -48 10 l63 -1 -64 6 c-79 7 -85 11 -14 9 30 -1 55 -1 55
1 0 1 -1 6 -3 10 -4 10 -12 10 -12 0 0 -8 -101 -8 -109 0 -4 4 10 88 16 96 11
14 34 14 49 0 19 -18 16 -20 76 54 30 38 55 67 56 67 1 -1 -2 -38 -7 -83z
m-704 47 c-2 -4 0 -9 4 -11 3 -2 7 -1 8 2 1 4 113 -71 133 -89 8 -8 -42 13
-92 37 -33 16 -47 26 -46 31 1 4 -3 12 -9 17 -7 6 -9 10 -5 12 3 2 4 6 2 9 -2
3 -1 4 2 2 3 -2 4 -6 3 -10z m741 -107 c-9 -8 -9 -7 -6 19 2 15 3 32 4 38 0 5
3 -4 5 -20 5 -25 4 -30 -3 -37z m342 49 c11 -5 21 -12 22 -15 6 -9 -14 -5 -44
10 -29 14 -29 15 -14 15 9 0 25 -4 36 -10z m-747 -45 c-2 -3 -1 -5 2 -5 3 0 5
-3 3 -7 -1 -4 0 -9 4 -10 4 -2 4 -4 -1 -6 -5 -2 -5 -4 0 -9 4 -3 6 -5 5 -4 -1
0 -9 -2 -18 -6 -21 -8 -28 -5 -28 12 0 15 -11 21 -17 10 -2 -3 -1 -5 1 -5 3 0
6 -6 7 -12 4 -18 -4 -16 -11 3 -4 9 -8 18 -9 20 -1 1 10 4 24 5 17 2 28 6 31
11 2 4 6 8 7 8 1 0 1 -2 0 -5z m-141 -81 c-3 -5 2 -5 13 1 11 6 35 -3 35 -14
0 -4 3 -6 9 -4 25 8 33 -9 14 -26 -14 -12 -17 -23 -7 -29 3 -2 4 -1 2 2 -1 3
1 6 5 8 6 2 7 1 5 -4 -1 -5 0 -8 2 -8 3 0 5 -4 4 -9 -1 -5 1 -12 3 -16 3 -5 3
-5 -2 -2 -10 5 -25 6 -25 1 0 -2 2 -4 4 -4 2 0 4 -5 4 -10 0 -7 -3 -9 -8 -8
-5 2 -4 0 2 -4 6 -5 7 -8 3 -8 -4 0 -2 -4 5 -10 6 -5 9 -10 6 -10 -3 0 -5 -4
-3 -10 1 -5 -1 -10 -3 -10 -3 0 -5 3 -5 8 0 4 -2 7 -5 7 -3 0 -4 -2 -3 -5 2
-3 0 -4 -5 -2 -6 3 -7 2 -5 -2 2 -3 2 -6 1 -6 -1 0 -5 4 -8 10 -4 8 -3 9 6 7
11 -2 11 -2 -1 5 -14 9 -22 10 -18 3 2 -3 0 -4 -4 -2 -4 2 -7 5 -5 7 1 2 0 6
-3 8 -4 2 -2 7 7 14 7 7 11 13 10 15 -2 1 -6 -1 -10 -5 -10 -9 -17 -9 -14 1 2
4 0 7 -3 7 -4 0 -5 1 -3 3 1 2 6 1 10 -3 5 -3 8 -4 8 -1 0 3 -5 8 -11 13 -10
7 -10 7 -1 5 7 -3 4 2 -8 13 -10 10 -16 16 -13 14 11 -8 14 -3 5 7 l-9 11 15
-9 c14 -9 14 -8 -3 7 -10 9 -13 14 -8 12 7 -3 9 -2 6 2 -2 4 -1 5 5 3 6 -3 7
-4 1 -8 -3 -2 -4 -4 -1 -4 16 0 18 9 3 17 -19 10 -21 15 -3 8 17 -7 15 -2 -4
10 -15 9 -15 9 -2 8 6 0 11 -2 10 -4z m669 -8 c1 -5 7 -9 13 -10 7 0 10 2 8 5
-2 2 2 2 7 -2 10 -6 10 -6 -2 -14 -7 -5 -11 -10 -9 -12 2 -1 0 -3 -4 -3 -5 0
-11 5 -14 10 -3 6 -10 10 -15 10 -6 0 -10 2 -10 5 0 3 2 4 5 3 3 -2 5 -1 5 3
0 3 4 1 8 -5 5 -7 12 -11 21 -11 13 1 13 1 2 4 -13 4 -31 26 -22 26 3 0 6 -4
7 -9z m-272 -63 c15 -6 25 -13 24 -16 -1 -3 0 -8 2 -10 3 -3 1 -5 -5 -5 -5 0
-8 2 -7 4 1 1 -5 5 -14 9 -21 7 -25 6 -6 -3 9 -4 11 -7 6 -7 -12 0 -11 -15 0
-15 14 0 36 -19 36 -30 0 -6 2 -10 5 -10 2 0 3 -7 2 -15 -1 -9 0 -14 3 -12 3
1 3 -2 0 -10 -3 -8 -3 -13 0 -13 3 0 3 -3 2 -7 -2 -5 -1 -8 1 -8 3 0 5 -4 5
-10 0 -5 -1 -9 -3 -9 -10 1 -14 -2 -12 -8 2 -5 5 -6 8 -5 4 2 5 1 3 -4 -2 -5
-1 -10 3 -11 3 -2 1 -2 -6 -1 -7 1 -12 -1 -14 -8 -1 -5 -5 -8 -7 -6 -3 1 -5 0
-5 -3 0 -3 3 -5 8 -5 4 0 7 -2 7 -5 0 -3 -2 -4 -5 -2 -6 3 -6 0 1 -15 5 -12 6
-12 12 -4 7 8 7 8 4 0 -2 -5 -1 -12 3 -16 4 -5 4 -8 0 -10 -3 -2 -5 0 -5 4 0
4 -2 8 -5 8 -3 0 -4 -2 -3 -5 2 -2 0 -5 -3 -7 -4 -1 -2 -4 5 -6 6 -2 11 -5 11
-7 0 -3 -6 -2 -12 1 -7 3 -13 8 -13 12 0 4 -2 8 -5 9 -3 2 -4 0 -2 -5 3 -6 2
-8 -2 -5 -5 3 -6 -1 -4 -18 2 -12 4 -24 4 -28 0 -3 4 -7 8 -9 7 -2 7 -3 1 -7
-5 -3 -6 -6 -2 -9 7 -6 7 -21 -1 -21 -4 0 -7 -3 -7 -7 0 -5 3 -8 6 -8 4 0 4
-2 -1 -5 -6 -4 -6 -6 3 -13 5 -4 7 -6 3 -5 -3 2 -10 1 -15 -2 -8 -5 -8 -6 0
-3 6 2 9 0 9 -5 0 -6 -3 -7 -9 -4 -5 2 -11 3 -15 3 -4 1 -4 2 0 7 16 20 11
220 -8 326 -5 25 -7 49 -5 52 2 3 1 4 -2 2 -3 -1 -6 2 -8 8 -1 6 0 13 3 15 5
3 4 4 -2 4 -5 0 -9 2 -9 5 0 3 2 5 4 4 2 -1 16 -6 30 -11z m-331 -148 l10 -4
-10 -1 -10 -1 10 -4 c6 -3 7 -4 2 -4 -4 0 -15 3 -25 7 -15 6 -15 7 -3 4 9 -1
13 -1 11 3 -4 6 1 6 15 0z m34 -29 c-1 -2 1 -8 6 -14 6 -11 6 -12 0 -12 -5 0
-7 3 -7 6 1 3 -4 7 -11 9 l-12 3 12 3 c10 3 11 5 5 11 -3 4 -8 7 -11 5 -2 -1
-4 1 -4 6 0 7 2 7 12 -3 7 -6 12 -13 10 -14z m-22 -24 c17 -5 28 -10 24 -12
-3 -3 -1 -5 6 -7 9 -3 10 -5 4 -9 -5 -4 -4 -4 4 -2 7 1 12 -1 14 -4 1 -5 -1
-6 -9 -5 -6 1 -8 1 -4 -1 10 -5 7 -17 -5 -17 -11 1 -11 1 -1 5 9 4 8 4 -3 5
-9 0 -11 1 -5 5 5 3 2 6 -13 10 -18 4 -30 20 -16 20 3 0 3 3 1 6 -2 3 -6 1 -9
-6 -6 -10 -7 -10 -10 -3 -2 6 -6 8 -11 6 -7 -3 -7 -2 -3 4 3 3 4 8 3 10 -5 5
0 4 33 -5z m801 -183 c-12 -3 -21 -6 -20 -6 4 -4 49 4 46 8 -5 8 7 4 15 -6 10
-10 -7 -20 -23 -13 -4 1 0 2 7 3 8 0 14 2 14 5 0 4 -5 4 -32 -3 -15 -4 -15 -4
10 -10 22 -5 23 -6 8 -7 -38 -1 -131 -43 -175 -79 -14 -11 -24 -16 -30 -14 -6
2 -12 0 -16 -4 -7 -9 0 -11 8 -3 4 4 8 3 12 -4 7 -7 7 -8 0 -2 -7 5 -11 3 -25
-12 -9 -9 -15 -17 -12 -17 2 0 -1 -3 -7 -5 -6 -3 -13 -10 -16 -16 -11 -30 -22
-30 -27 1 -3 22 -3 22 6 13 6 -5 9 -12 7 -17 -2 -5 -1 -6 3 -4 2 1 5 9 5 16 0
9 -2 11 -5 6 -4 -6 -4 -6 -4 10 0 2 3 4 6 4 3 0 7 2 8 6 1 3 -2 5 -9 4 -6 -2
-9 -1 -8 2 2 2 7 3 12 3 5 -1 19 7 31 19 l23 21 -23 -24 c-31 -34 -23 -34 10
-1 15 15 23 26 18 24 -10 -4 -10 -3 -3 6 11 13 -18 -7 -34 -25 -11 -12 -25
-14 -18 -3 1 3 4 4 7 3 4 -3 31 24 30 30 0 3 2 5 4 5 8 0 16 8 13 13 -2 3 -1
4 2 2 3 -1 6 0 8 4 1 4 17 15 35 25 18 10 33 21 33 24 0 2 2 3 5 2 2 -2 17 1
33 7 38 12 46 14 70 14 l20 0 -22 -5z m-683 -34 c5 -6 7 -10 3 -8 -3 2 -6 1
-6 -2 0 -5 -2 -5 -8 0 -6 5 -6 7 -1 11 5 3 5 4 1 4 -14 0 -12 -11 4 -25 9 -8
14 -15 11 -15 -3 0 -10 6 -17 12 -6 7 -14 11 -16 10 -7 -4 6 20 13 24 3 2 5 3
5 2 1 0 5 -6 11 -13z m-102 -12 c0 -3 0 -7 0 -9 0 -2 3 -6 8 -10 5 -5 7 -5 4
0 -2 3 -1 6 2 6 4 0 3 4 -3 11 l-9 12 11 -10 c6 -5 11 -12 11 -15 0 -3 5 -6
11 -7 6 0 13 -4 15 -8 3 -5 7 -8 10 -8 2 0 3 2 1 6 -2 3 1 4 9 2 8 -2 8 -1 -3
4 l-15 8 15 0 c11 0 13 1 7 5 -5 3 -5 5 -2 5 4 0 13 -6 20 -13 8 -7 15 -10 16
-7 1 3 4 4 6 2 3 -1 5 -1 5 2 0 2 -5 7 -10 10 -15 9 -9 13 7 4 7 -3 11 -8 10
-10 -2 -2 -1 -3 2 -3 5 0 5 -2 0 -7 -4 -4 -9 -6 -11 -4 -3 1 -3 0 -1 -3 2 -3
9 -6 15 -6 8 0 9 -1 3 -5 -4 -2 -9 -3 -12 -1 -2 1 -3 0 -1 -3 2 -3 1 -6 -1 -6
-3 0 -7 2 -8 5 -2 3 -7 5 -12 5 -6 0 -5 -2 4 -7 7 -4 16 -6 21 -5 5 1 9 1 9
-2 0 -3 8 -3 19 -1 14 2 21 1 28 -6 5 -5 13 -9 16 -9 4 0 7 -2 7 -5 0 -2 -8
-1 -17 3 -16 6 -25 5 -20 -4 1 -2 8 -4 14 -4 7 0 13 -3 15 -7 2 -6 -1 -6 -15
-2 -10 2 -20 4 -23 3 -4 -1 4 -5 18 -8 14 -4 22 -8 20 -11 -2 -3 -6 -4 -10 -3
-4 1 -7 1 -7 -2 0 -2 5 -5 11 -7 6 -1 3 -1 -7 0 -11 0 -20 -1 -22 -4 -2 -3 -7
-4 -13 -2 -10 2 -11 1 -4 -14 5 -9 4 -9 -4 2 -6 7 -12 11 -14 8 -2 -2 -1 -6 3
-9 6 -3 4 -4 -5 -2 -11 3 -11 3 -5 -3 4 -4 7 -10 6 -15 -1 -6 1 -9 7 -9 7 0 8
1 3 4 -4 3 1 4 11 4 13 0 16 -2 12 -6 -8 -6 -11 -19 -4 -15 3 2 5 1 5 -1 0 -3
7 -6 15 -7 17 -3 20 3 6 11 -5 2 -6 5 -3 5 10 0 16 -12 14 -28 -1 -19 -7 -30
-11 -23 -2 3 -11 6 -21 7 -10 2 -17 5 -16 8 0 3 -3 6 -8 6 -5 0 -3 3 6 7 13 5
14 7 6 9 -6 3 -7 2 -5 -2 2 -4 0 -5 -7 -3 -6 2 -10 1 -9 -1 4 -5 -15 -10 -22
-5 -5 3 -4 5 3 9 12 7 5 8 -8 1 -6 -3 -10 -4 -10 -1 0 3 4 7 9 8 10 3 10 23 1
23 -2 0 -3 -4 -1 -10 1 -5 0 -10 -3 -11 -22 -2 -38 5 -34 14 2 6 0 7 -8 4 -7
-2 -10 -1 -8 4 2 3 5 6 8 5 3 0 6 1 6 4 0 6 -3 6 -15 0 -12 -6 -25 -1 -14 5 5
3 4 4 -4 4 -13 -1 -45 20 -67 44 -10 11 -13 16 -7 11 9 -8 10 -8 10 4 1 7 -1
12 -4 12 -2 0 -3 -3 -1 -6 8 -13 -8 2 -19 17 l-11 17 11 -10 c6 -5 11 -7 11
-4 0 3 -2 7 -5 9 -3 1 -5 5 -5 8 0 3 7 -3 15 -14 8 -11 15 -23 15 -27 0 -5 5
-13 10 -18 l10 -9 -9 22 c-11 23 -9 37 2 33 4 -2 6 -1 5 2 -2 2 0 5 4 7 4 1 9
0 11 -3 2 -3 1 -4 -2 -2 -3 2 -6 1 -6 -2 0 -3 3 -5 8 -3 4 2 14 -1 21 -6 12
-8 13 -8 7 0 -6 7 -5 8 4 8 5 -1 10 -3 10 -6 0 -5 15 -18 21 -18 2 0 4 2 4 5
0 3 -3 5 -7 5 -9 0 -14 14 -7 16 3 1 4 5 2 8 -3 5 -6 5 -13 -1 -8 -7 -9 -7
-15 -1 -5 7 -5 8 2 8 4 0 9 2 10 4 2 3 -3 5 -9 5 -7 0 -12 -2 -10 -5 7 -12 -8
-2 -27 18 -15 15 -20 23 -15 24 9 3 19 -1 20 -8z m310 -5 l0 -15 4 15 c4 13 4
14 4 2 1 -23 -8 -29 -13 -10 -3 10 -5 13 -6 8 0 -5 -2 -7 -5 -6 -2 2 -5 0 -7
-3 -1 -4 -2 0 -3 9 0 11 1 13 5 7 4 -7 5 -7 5 0 0 16 15 9 16 -7z m-299 -35
c9 -7 13 -13 11 -13 -3 0 -10 5 -16 11 -7 6 -12 8 -12 5 0 -3 -4 -4 -8 -2 -7
2 -8 1 -4 -4 3 -6 3 -7 -5 -1 -7 7 -8 6 -5 -2 3 -6 2 -8 -3 -4 -5 3 -6 1 -4
-5 5 -12 0 -10 -6 3 -4 7 -4 9 0 7 8 -5 6 3 -4 13 -8 10 -8 10 2 8 5 -1 9 -5
8 -8 -1 -5 1 -5 8 -1 5 2 11 3 13 1 2 -1 3 0 3 4 0 3 -3 5 -7 3 -4 -1 -9 0
-11 2 -1 3 0 5 3 5 4 0 3 4 -3 11 -5 6 -1 5 8 -4 10 -8 24 -21 32 -29z m751
22 c-6 -9 -33 -26 -33 -20 0 3 7 10 16 15 19 11 21 12 17 5z m13 -46 c-11 -12
-22 -20 -24 -18 -4 4 30 39 39 39 3 0 -3 -9 -15 -21z m83 1 c-4 -6 -10 -11
-15 -13 -5 -1 -9 -4 -8 -6 1 -10 -2 -16 -12 -22 -11 -5 -11 -5 1 8 7 8 12 15
11 16 -4 6 1 12 13 19 17 10 17 10 10 -2z m-61 -9 c-2 -3 -11 -11 -19 -17 -15
-10 -16 -10 -9 -1 14 19 38 34 28 18z m-56 -4 c-2 -4 -7 -10 -13 -12 -5 -3 -8
-7 -7 -10 2 -2 -3 -9 -11 -16 l-13 -11 12 14 c7 7 12 15 11 17 -1 3 18 26 22
26 1 0 0 -3 -1 -8z m-487 -25 c-6 -11 -9 -14 -7 -8 3 11 2 12 -9 9 -6 -2 -9
-2 -5 0 3 2 5 5 3 8 -2 3 1 4 7 2 7 -2 11 -1 13 5 2 5 4 7 6 6 1 -2 -2 -12 -8
-22z m560 15 c-4 -4 -14 -12 -22 -18 l-15 -11 10 12 c12 15 23 25 29 25 2 0 1
-3 -2 -8z m-846 -37 c4 0 6 -4 5 -9 -1 -10 4 -21 12 -21 2 0 3 2 2 5 -6 9 12
1 50 -23 22 -14 51 -32 66 -39 25 -12 36 -21 18 -14 -6 2 -7 1 -5 -3 5 -8 -3
-8 -11 0 -4 4 -6 4 -6 1 0 -11 51 -27 70 -22 11 2 14 4 7 4 -6 1 -15 2 -20 4
-8 2 -8 2 -2 -2 10 -8 2 -7 -20 2 -26 10 -10 11 44 3 l26 -3 -15 -26 -15 -26
-27 10 c-16 6 -27 11 -26 12 1 1 8 0 15 -3 8 -3 19 -5 25 -5 6 1 0 4 -14 8
-13 4 -23 9 -21 10 1 2 10 0 20 -3 19 -6 40 -3 35 5 -1 3 -8 5 -14 5 -10 -1
-10 -1 0 -5 20 -9 -2 -5 -31 6 -49 17 -74 15 -39 -3 23 -13 19 -16 -6 -3 -11
5 -25 12 -33 15 -27 12 -108 77 -134 108 -11 13 -11 13 -1 5 13 -11 15 -6 2 9
-5 6 5 -1 21 -16 42 -37 45 -32 5 7 -19 18 -24 24 -11 13 34 -30 36 -26 4 8
-21 22 -22 24 -5 7 13 -11 26 -21 29 -21z m911 25 c-15 -12 -21 -13 -17 -3 3
7 23 18 27 15 1 -2 -3 -7 -10 -12z m-185 -13 c-7 -8 -25 -19 -25 -15 0 1 6 8
14 15 14 13 22 14 11 0z m55 -23 c-12 -12 -19 -17 -15 -11 13 18 32 37 34 34
2 -1 -7 -12 -19 -23z m67 11 c-10 -12 -27 -22 -27 -17 0 4 26 27 32 27 2 0 0
-5 -5 -10z m-97 -32 c-3 -6 -10 -14 -16 -17 -12 -8 -9 -1 8 18 12 14 14 14 8
-1z m-503 -8 c5 -7 -2 -20 -8 -17 -4 2 -4 0 -2 -5 3 -8 2 -9 -5 -3 -5 5 -6 8
-3 9 4 1 5 4 3 7 -1 2 -1 4 1 4 10 -2 14 1 7 5 -5 3 -5 5 -2 5 4 0 8 -2 9 -5z
m43 -73 c8 -17 15 -37 14 -45 0 -10 -1 -12 -2 -4 -8 31 -20 60 -36 81 -14 19
-15 21 -4 11 8 -7 20 -26 28 -43z m-227 -2 c51 -33 94 -55 124 -65 10 -3 17
-7 16 -9 -4 -4 -74 27 -112 50 -18 10 -33 19 -34 19 -2 0 -13 8 -26 18 -34 26
-20 20 32 -13z m175 12 c-1 -4 -6 -7 -10 -7 -7 0 -7 2 0 13 9 13 16 9 10 -6z
m442 -21 c-3 -5 -16 -20 -29 -34 -26 -28 -24 -23 9 17 21 26 30 33 20 17z
m-812 0 c-5 -4 8 -16 13 -13 3 2 4 1 2 -2 -2 -3 4 -11 13 -19 9 -7 12 -11 7
-8 -17 8 -50 44 -41 44 5 0 7 -1 6 -2z m782 -55 c-2 -5 -13 -17 -23 -28 -16
-18 -15 -17 4 8 22 29 29 36 19 20z"/>
<path d="M572 1899 c1 -5 0 -8 -2 -6 -2 1 -6 0 -8 -4 -3 -4 0 -5 8 -2 7 1 14
3 16 3 10 0 3 18 -6 18 -8 0 -10 -3 -8 -9z"/>
<path d="M630 1878 c0 -9 8 -11 11 -3 1 4 12 3 33 -2 18 -5 33 -7 35 -6 2 3
-28 11 -58 16 -17 3 -21 2 -21 -5z"/>
<path d="M608 1862 c-3 -12 -1 -21 4 -17 5 6 9 30 4 30 -3 0 -6 -6 -8 -13z"/>
<path d="M581 1848 c-6 -4 -12 -8 -14 -9 -3 -4 -43 -185 -40 -187 1 -2 6 15
10 36 29 131 34 148 43 146 5 -2 10 2 14 9 6 13 4 14 -13 5z"/>
<path d="M1180 1824 c0 -17 1 -30 2 -29 5 6 7 55 3 58 -3 1 -5 -9 -5 -29z"/>
<path d="M430 1855 c0 -2 3 -6 6 -9 5 -5 4 -6 -4 -6 -5 -1 -7 -2 -3 -3 8 -3
21 7 21 16 0 3 -4 6 -10 6 -5 -1 -10 -2 -10 -4z"/>
<path d="M461 1827 c-13 -15 -13 -17 -2 -25 12 -9 15 -9 17 4 1 8 4 11 10 10
11 -2 12 7 2 17 -9 9 -13 8 -27 -6z"/>
<path d="M649 1724 c-58 -90 -81 -129 -77 -129 1 0 16 23 33 50 20 32 33 49
35 45 3 -4 11 5 25 25 11 17 20 32 19 33 -2 1 -9 -7 -16 -18 -8 -12 -15 -20
-16 -18 -2 1 10 21 26 45 16 24 28 44 26 45 -1 2 -26 -34 -55 -78z"/>
<path d="M786 1767 c-4 -4 -4 -8 -1 -10 7 -4 25 3 25 10 0 8 -16 9 -24 0z"/>
<path d="M772 1727 c2 -4 3 -9 3 -10 0 -1 3 -2 8 -2 4 0 7 -3 7 -7 0 -5 2 -8
5 -8 3 0 5 7 5 16 0 11 -2 14 -7 12 -5 -1 -8 -1 -8 2 0 3 -4 5 -8 5 -5 0 -7
-3 -5 -8z"/>
<path d="M748 1710 c-5 -5 -11 -9 -13 -7 -4 2 -79 -85 -132 -153 -16 -20 -42
-52 -58 -70 -49 -57 -111 -135 -109 -138 1 -1 14 13 29 31 14 18 27 31 29 30
1 -1 -6 -12 -16 -24 -10 -12 -18 -25 -17 -29 2 -8 19 -14 19 -6 0 3 -4 6 -8 7
-9 2 -11 -1 136 179 94 116 103 128 75 98 -32 -33 -29 -24 5 17 25 30 46 47
27 21 -4 -5 4 3 17 18 15 16 26 25 31 23 4 -2 7 0 7 5 0 11 -12 10 -22 -2z
m-94 -114 c-3 -5 -8 -10 -9 -11 -1 -1 -16 -19 -32 -40 -53 -67 -115 -140 -117
-137 -1 1 15 23 37 49 22 25 58 69 81 97 23 28 42 51 44 51 2 0 0 -4 -4 -9z"/>
<path d="M432 1321 c4 -12 -6 -15 -10 -4 -2 5 -5 7 -8 5 -2 -1 -3 -5 -1 -7 1
-3 0 -5 -3 -5 -3 0 -5 -2 -5 -6 0 -3 3 -4 7 -2 5 1 6 -1 4 -7 -3 -14 3 -12 9
1 4 11 4 11 5 -3 0 -8 2 -12 5 -10 7 4 6 41 -1 45 -3 2 -4 0 -2 -7z"/>
<path d="M450 1323 c0 -3 3 -7 6 -7 4 0 13 -2 21 -4 11 -3 14 -2 12 4 -1 3 -6
6 -11 5 -4 -1 -8 1 -8 4 0 3 -4 5 -10 5 -5 0 -10 -3 -10 -7z"/>
<path d="M1335 1450 c0 -67 1 -120 3 -119 3 4 3 235 -1 238 -1 2 -2 -52 -2
-119z"/>
<path d="M1402 1475 c0 -18 1 -25 2 -16 1 9 1 23 0 32 -1 9 -2 2 -2 -16z"/>
<path d="M1352 1283 c0 -33 1 -46 2 -29 1 17 1 44 0 60 -1 16 -2 2 -2 -31z"/>
<path d="M1339 1274 c3 -68 7 -70 6 -3 -1 30 -3 54 -5 54 -2 0 -3 -23 -1 -51z"/>
<path d="M1367 1278 c0 -28 1 -39 2 -24 1 14 1 37 0 50 -1 13 -2 1 -2 -26z"/>
<path d="M1267 1050 c-5 -7 -7 -10 -4 -8 4 2 7 1 8 -2 1 -3 6 -1 12 5 5 7 7
10 4 8 -4 -2 -7 -1 -8 2 -1 3 -6 1 -12 -5z"/>
<path d="M1095 1038 c-6 -7 -5 -8 3 -5 8 3 9 3 3 -5 -7 -7 -6 -8 2 -5 8 3 9 3
3 -4 -3 -4 -4 -9 -2 -11 2 -2 -2 -3 -8 -1 -13 4 -31 0 -31 -7 0 -3 4 -2 10 1
6 4 12 4 21 1 10 -5 10 -6 2 -9 -5 -2 -7 -1 -5 2 4 7 -4 6 -14 -2 -15 -11 4
-15 21 -5 12 7 14 12 13 25 -3 25 -10 35 -18 25z"/>
<path d="M983 1025 c8 -6 11 -10 7 -10 -6 0 -5 -2 2 -6 5 -3 10 -4 12 -2 1 2
0 3 -3 3 -3 0 -5 3 -3 7 1 3 -3 9 -11 12 -19 9 -21 7 -4 -4z"/>
<path d="M1056 965 c-15 -6 -14 -11 3 -7 l14 3 -13 -8 c-8 -5 -10 -8 -5 -8 13
0 22 8 17 16 -3 6 -8 7 -16 4z"/>
<path d="M931 872 c-7 -3 -3 -12 5 -12 2 0 3 2 1 5 -2 4 3 5 16 3 14 -2 17 -2
10 2 -12 5 -22 6 -32 2z"/>
<path d="M975 864 c0 -3 6 -4 15 -3 10 2 15 0 15 -4 0 -4 2 -7 5 -7 2 0 4 5 4
10 -1 11 -39 15 -39 4z"/>
<path d="M945 860 c0 -4 24 -10 39 -10 13 0 5 4 -18 9 -12 3 -21 3 -21 1z"/>
<path d="M1296 835 c-11 -5 -21 -11 -21 -12 0 -3 43 14 48 18 6 7 -5 4 -27 -6z"/>
<path d="M946 792 c6 -6 33 -7 52 -3 18 5 17 5 -18 5 -20 1 -35 0 -34 -2z"/>
<path d="M1270 782 l-22 -7 22 3 c12 1 25 5 27 7 6 6 1 6 -27 -3z"/>
<path d="M1157 757 c-9 -7 -9 -7 2 -4 8 2 11 1 9 -2 -5 -8 2 -7 17 2 l13 8
-14 -3 c-7 -2 -14 -1 -15 2 -1 3 -6 2 -12 -3z"/>
<path d="M983 742 l-25 -7 24 3 c14 1 27 4 30 7 6 6 2 6 -29 -3z"/>
<path d="M1168 726 c-11 -8 -12 -10 -6 -13 5 -2 7 -1 6 2 -2 3 2 4 11 3 7 -1
9 -1 4 1 -9 2 -9 2 0 9 14 10 2 8 -15 -2z"/>
<path d="M1224 719 c-13 -10 -9 -11 16 -2 15 5 16 7 7 9 -6 2 -16 -1 -23 -7z"/>
<path d="M1150 704 c0 -4 -5 -10 -11 -13 -9 -5 -9 -5 -1 -3 28 10 44 17 36 17
-4 0 -12 1 -16 3 -5 2 -8 0 -8 -4z"/>
<path d="M1111 680 c-14 -6 -15 -12 0 -7 7 2 9 1 7 -2 -2 -4 2 -5 13 -3 23 5
28 10 6 8 -13 -2 -17 -1 -15 3 4 7 4 7 -11 1z"/>
<path d="M1173 660 c-14 -3 -14 -4 -4 -4 7 -1 15 -4 18 -7 3 -4 5 -6 4 -4 -1
1 4 5 10 9 11 6 11 6 -3 3 -12 -2 -14 -2 -8 3 8 5 4 6 -17 0z"/>
<path d="M1108 652 c-10 -8 -10 -8 1 -4 9 2 11 1 9 -2 -2 -4 -1 -6 3 -6 4 0
-1 -5 -11 -11 -11 -8 -17 -9 -19 -5 -1 4 -7 3 -21 -4 -25 -13 -26 -17 -2 -7
10 4 19 6 21 5 1 -2 0 -3 -2 -3 -3 0 -9 -3 -15 -8 -9 -6 -9 -7 0 -4 11 4 21
-8 11 -14 -8 -5 -14 -5 -10 1 3 6 -3 6 -13 0 -8 -5 1 -8 21 -6 4 0 9 -2 10 -6
2 -4 -2 -6 -14 -6 -9 0 -15 2 -13 5 1 2 0 3 -4 1 -3 -2 -4 -5 -3 -7 2 -2 -1
-5 -6 -8 -9 -5 -9 -6 -2 -13 7 -6 8 -6 5 1 -4 10 19 20 37 15 8 -2 10 -1 8 6
-2 4 -2 8 1 8 3 0 5 2 5 5 0 3 -2 4 -4 3 -3 -2 -6 0 -7 4 -2 4 1 6 11 6 8 0
15 -2 15 -4 0 -3 2 -3 6 -1 4 2 3 4 -1 7 -4 3 -3 5 3 7 5 2 10 1 12 -2 3 -5 5
-5 7 -1 2 4 1 6 -2 6 -3 0 -4 2 -2 5 5 9 -8 5 -22 -5 -15 -12 -25 -13 -15 -2
6 8 5 8 -5 2 -7 -3 -13 -5 -14 -3 -3 2 24 18 31 18 1 0 1 -3 -1 -6 -2 -3 -1
-4 2 -2 4 2 5 6 3 8 -1 3 1 3 6 2 7 -3 7 -2 3 7 -3 5 -4 11 -2 13 1 2 0 3 -3
3 -4 0 -5 2 -3 5 4 7 -4 6 -15 -3z"/>
<path d="M1140 654 c-5 -16 17 -33 29 -22 1 2 -2 3 -8 3 -7 0 -10 2 -8 5 1 3
0 5 -3 5 -3 0 -4 2 -2 5 1 3 0 5 -3 5 -3 0 -5 -1 -5 -1z"/>
<path d="M1158 522 c-9 -6 -9 -7 -1 -7 5 0 7 -2 6 -5 -2 -3 -1 -5 1 -5 3 0 7
2 9 5 1 3 0 5 -3 5 -5 0 -5 2 0 8 8 9 0 9 -12 -1z"/>
<path d="M1024 512 c5 -2 4 -5 -2 -10 -9 -7 -9 -7 2 -4 8 2 11 1 9 -2 -2 -4
-1 -6 3 -6 5 0 4 -1 -1 -5 -6 -4 -6 -5 0 -5 5 0 4 -2 -3 -7 -5 -4 -7 -8 -4 -8
9 0 23 14 16 17 -5 2 -5 2 0 3 5 0 5 2 -2 8 -5 6 -6 9 -2 12 6 4 -5 10 -17 10
-3 -1 -3 -2 1 -3z"/>
<path d="M87 1373 c1 -4 0 -8 -4 -9 -3 -2 -4 -4 -2 -7 2 -2 8 0 13 3 7 6 8 6
2 0 -9 -11 -8 -23 2 -15 9 7 9 21 1 29 -8 8 -16 8 -12 -1z"/>
<path d="M130 1365 c-5 -24 -5 -30 0 -30 4 0 5 3 3 7 -1 4 0 8 4 10 4 1 4 3
-1 8 -3 4 -6 6 -6 5z"/>
<path d="M105 1317 c0 -14 157 -208 161 -200 3 5 -6 22 -34 58 -39 52 -54 67
-27 28 22 -33 16 -28 -17 12 -27 33 -36 48 -20 35 11 -10 8 -1 -5 15 -7 8 -13
12 -14 9 -1 -3 -11 6 -21 20 -18 25 -23 30 -23 23z m138 -164 c18 -24 23 -33
20 -33 -3 0 -43 53 -43 58 0 5 3 2 23 -25z"/>
<path d="M478 1005 c-4 -6 1 -15 8 -15 3 0 2 3 -2 8 -6 8 -5 8 10 0 9 -4 16
-6 16 -4 0 3 -4 6 -9 8 -5 2 -11 4 -14 6 -3 1 -8 0 -9 -3z"/>
<path d="M468 930 c1 -5 -1 -10 -4 -10 -2 0 -3 -2 -2 -5 2 -2 -1 -7 -6 -10
-10 -5 -9 -6 10 -7 7 -1 12 1 11 3 -1 2 0 4 4 4 4 0 3 2 -2 5 -5 3 -8 9 -6 18
1 6 0 12 -3 12 -2 0 -4 -4 -2 -10z"/>
<path d="M463 650 c3 -3 14 -6 25 -8 l20 -2 -18 7 c-22 9 -34 10 -27 3z"/>
<path d="M64 1263 c-17 -20 -18 -22 -10 -30 6 -6 7 -9 2 -14 -5 -5 -7 -4 -12
2 -6 8 -7 8 -12 -4 -5 -11 -5 -12 4 -12 5 0 8 -2 6 -5 -1 -3 0 -5 2 -5 3 0 6
5 7 10 5 18 16 12 12 -7 -2 -16 0 -19 17 -33 25 -20 32 -19 9 1 -24 22 -31 61
-11 66 12 3 17 18 7 18 -3 0 -5 -3 -5 -7 0 -5 -10 -7 -24 -3 -1 0 3 7 10 16
26 35 25 39 -2 7z"/>
<path d="M86 1212 c-3 -2 -6 -7 -6 -11 0 -7 1 -7 8 1 4 6 7 7 7 4 0 -3 2 -6 5
-6 3 0 5 3 5 8 0 7 -7 8 -19 4z"/>
<path d="M248 1036 c31 -27 92 -73 92 -70 0 4 -88 74 -93 74 -2 0 -2 -2 1 -4z"/>
<path d="M676 1077 c-8 -4 -8 -12 2 -12 4 0 7 -4 7 -9 0 -8 1 -8 6 -1 4 5 9 7
13 6 12 -4 6 9 -7 14 -7 3 -13 5 -14 5 0 -1 -3 -2 -7 -3z"/>
<path d="M45 1121 c0 -3 4 -6 8 -8 6 -2 8 -8 6 -23 -2 -23 4 -27 9 -5 2 10 0
19 -5 28 -8 12 -18 16 -18 8z"/>
<path d="M30 1106 c0 -3 -2 -9 -3 -14 -3 -7 -2 -8 5 -6 4 2 8 2 8 -1 0 -10 9
-5 12 6 3 13 4 12 -11 16 -6 2 -11 2 -11 -1z"/>
<path d="M73 1065 c7 -7 128 -61 131 -58 1 1 -5 6 -15 10 -9 4 -36 16 -59 27
-52 24 -64 28 -57 21z"/>
<path d="M210 1003 c0 -3 25 -14 62 -28 38 -15 20 -3 -21 15 -40 16 -41 16
-41 13z"/>
<path d="M777 954 c-2 -3 -1 -7 2 -8 3 -1 -2 -8 -10 -16 -10 -8 -14 -15 -10
-17 3 -2 7 1 8 6 2 5 9 12 15 15 9 4 11 8 10 16 -3 11 -10 13 -15 4z"/>
<path d="M784 925 c-13 -8 -11 -19 4 -19 9 0 12 2 10 7 -1 4 -1 7 2 7 3 0 5 2
5 5 0 6 -10 6 -21 0z"/>
<path d="M310 800 c-7 -4 27 -25 41 -25 4 0 -3 6 -16 12 -14 8 -19 13 -15 14
4 2 5 3 3 4 -3 0 -9 -2 -13 -5z"/>
<path d="M946 324 c-4 -4 -9 -6 -12 -6 -3 0 -6 -6 -7 -12 0 -11 0 -11 15 3 8
9 14 17 12 18 -1 2 -5 0 -8 -3z"/>
<path d="M445 386 c0 -4 35 -27 38 -25 1 2 -7 9 -18 16 -11 7 -20 11 -20 9z"/>
<path d="M398 354 c1 -4 8 -10 15 -13 12 -6 13 -5 10 2 -2 6 -1 7 5 5 4 -2 6
-1 5 2 -2 2 -7 4 -12 4 -5 0 -12 1 -17 3 -7 3 -8 2 -6 -3z"/>
<path d="M375 327 c0 -3 3 -8 6 -11 9 -9 -12 -5 -24 4 -9 7 -9 6 0 -4 5 -6 11
-10 12 -9 1 2 9 -2 16 -7 9 -7 15 -8 18 -5 1 3 0 5 -4 4 -3 -1 -6 1 -6 4 -1 6
-18 30 -18 24z"/>
<path d="M331 273 c10 -10 21 -18 24 -18 3 0 -1 5 -8 11 -28 22 -34 25 -16 7z"/>
<path d="M290 1755 c0 -3 -2 -4 -4 -3 -3 2 -5 -3 -4 -10 1 -13 10 -16 15 -4 5
12 4 22 -2 22 -3 0 -5 -2 -5 -5z"/>
<path d="M324 1749 c-4 -10 -2 -29 3 -29 4 0 6 6 6 15 0 12 -6 20 -9 14z"/>
<path d="M312 1602 c2 -5 13 -47 25 -93 13 -47 24 -87 26 -88 2 -2 2 0 1 4 -1
4 -12 47 -24 96 -12 49 -24 89 -27 89 -2 0 -3 -4 -1 -8z"/>
<path d="M172 1525 c0 -9 -6 -21 -13 -29 l-11 -13 12 8 c14 8 24 37 17 44 -3
3 -5 -2 -5 -10z"/>
<path d="M152 1526 c3 -7 2 -7 -3 -2 -13 13 -19 5 -6 -11 5 -8 8 -8 14 -4 7 7
5 26 -3 26 -3 0 -4 -4 -2 -9z"/>
<path d="M185 1526 c0 -12 14 -19 22 -11 3 3 2 5 -3 5 -5 0 -9 3 -9 8 0 4 -2
7 -5 7 -3 0 -5 -4 -5 -9z"/>
<path d="M180 1468 c-3 -4 -4 -12 -2 -18 2 -7 1 -13 -3 -15 -4 -3 -4 -5 -1 -7
4 -2 6 -1 6 3 0 3 3 2 8 -4 7 -9 7 -8 0 10 -10 24 -10 28 -1 25 3 -1 6 1 6 5
0 10 -5 10 -13 1z"/>
<path d="M371 1375 c6 -22 11 -39 13 -38 3 3 -14 69 -19 75 -2 2 0 -14 6 -37z"/>
<path d="M206 1357 c10 -28 31 -72 35 -72 2 0 -4 16 -14 36 -16 33 -26 50 -21
36z"/>
<path d="M225 1344 c0 -1 10 -24 22 -50 12 -25 23 -44 23 -41 0 5 -44 96 -45
91z"/>
<path d="M266 1224 c15 -32 27 -58 28 -57 3 3 -38 95 -47 106 -4 5 5 -17 19
-49z"/>
</g>
</svg>
